<svg width="40" height="34" viewBox="0 0 40 34" fill="none" xmlns="http://www.w3.org/2000/svg">
<path d="M2.28571 25.0181V11.2971H0V9.01025H3.42857C3.73167 9.01025 4.02236 9.13072 4.23669 9.34515C4.45101 9.55959 4.57142 9.85042 4.57142 10.1537V23.8747H18.7863L21.072 14.7273H6.85713V12.4405H22.5371C22.7108 12.4405 22.8823 12.4801 23.0384 12.5564C23.1945 12.6326 23.3312 12.7435 23.4381 12.8805C23.5449 13.0175 23.6192 13.1771 23.6552 13.3471C23.6911 13.5172 23.6879 13.6932 23.6457 13.8618L20.7885 25.2959C20.7266 25.5432 20.5839 25.7627 20.3831 25.9195C20.1822 26.0763 19.9347 26.1615 19.68 26.1615H3.42857C3.12546 26.1615 2.83477 26.041 2.62045 25.8266C2.40612 25.6122 2.28571 25.3213 2.28571 25.0181ZM4.57142 33.022C3.96521 33.022 3.38383 32.7811 2.95518 32.3522C2.52653 31.9233 2.28571 31.3417 2.28571 30.7352C2.28571 30.1287 2.52653 29.547 2.95518 29.1181C3.38383 28.6893 3.96521 28.4483 4.57142 28.4483C5.17763 28.4483 5.75901 28.6893 6.18766 29.1181C6.61632 29.547 6.85713 30.1287 6.85713 30.7352C6.85713 31.3417 6.61632 31.9233 6.18766 32.3522C5.75901 32.7811 5.17763 33.022 4.57142 33.022ZM18.2857 33.022C17.6795 33.022 17.0981 32.7811 16.6694 32.3522C16.2408 31.9233 16 31.3417 16 30.7352C16 30.1287 16.2408 29.547 16.6694 29.1181C17.0981 28.6893 17.6795 28.4483 18.2857 28.4483C18.8919 28.4483 19.4733 28.6893 19.9019 29.1181C20.3306 29.547 20.5714 30.1287 20.5714 30.7352C20.5714 31.3417 20.3306 31.9233 19.9019 32.3522C19.4733 32.7811 18.8919 33.022 18.2857 33.022Z" fill="white"/>
<circle cx="29" cy="11" r="10" fill="#5A00A5" stroke="#1F1F1F" stroke-width="2"/>
<path d="M26.8798 15V14.196C27.4078 13.684 27.8838 13.212 28.3078 12.78C28.7398 12.348 29.1038 11.948 29.3998 11.58C29.7038 11.212 29.9358 10.868 30.0958 10.548C30.2558 10.228 30.3358 9.924 30.3358 9.636C30.3358 9.228 30.2278 8.908 30.0118 8.676C29.7958 8.436 29.4838 8.316 29.0758 8.316C28.7798 8.316 28.5078 8.4 28.2598 8.568C28.0198 8.736 27.7958 8.936 27.5878 9.168L26.8198 8.4C27.1718 8.024 27.5318 7.736 27.8998 7.536C28.2758 7.328 28.7278 7.224 29.2558 7.224C29.6238 7.224 29.9558 7.28 30.2518 7.392C30.5478 7.504 30.7998 7.664 31.0078 7.872C31.2158 8.072 31.3758 8.316 31.4878 8.604C31.6078 8.892 31.6678 9.212 31.6678 9.564C31.6678 9.9 31.5918 10.244 31.4398 10.596C31.2958 10.94 31.0958 11.292 30.8398 11.652C30.5918 12.004 30.2998 12.368 29.9638 12.744C29.6278 13.12 29.2718 13.508 28.8958 13.908C29.0958 13.892 29.3118 13.876 29.5438 13.86C29.7758 13.836 29.9838 13.824 30.1678 13.824H32.0398V15H26.8798Z" fill="white"/>
</svg>
