<svg width="40" height="44" viewBox="0 0 40 44" fill="none" xmlns="http://www.w3.org/2000/svg">
<g opacity="0.3">
<path d="M9.33316 42.0166V2.56673C9.33316 2.48676 9.33316 2.38014 9.33316 2.30017C9.35983 2.06027 9.3865 1.84703 9.4665 1.63379H1.59984C1.09317 1.63379 0.666504 2.06027 0.666504 2.56673V42.0166C0.666504 42.5231 1.09317 42.9496 1.59984 42.9496H9.49316C9.41316 42.7363 9.35983 42.5231 9.35983 42.2832C9.33316 42.2032 9.33316 42.0966 9.33316 42.0166ZM2.2665 6.29848C2.2665 6.08523 2.45317 5.89865 2.6665 5.89865C2.87984 5.89865 3.0665 6.08523 3.0665 6.29848C3.0665 6.51172 2.87984 6.69831 2.6665 6.69831C2.45317 6.69831 2.2665 6.51172 2.2665 6.29848ZM2.6665 2.30017C3.41317 2.30017 3.99983 2.88659 3.99983 3.63294C3.99983 4.37929 3.41317 4.96571 2.6665 4.96571C1.91984 4.96571 1.33317 4.37929 1.33317 3.63294C1.33317 2.88659 1.91984 2.30017 2.6665 2.30017Z" fill="black"/>
<path d="M12.2665 42.2832H28.6132C28.5065 42.6564 28.1332 42.9496 27.7332 42.9496H10.9598C10.8265 42.763 10.7198 42.5231 10.6932 42.2832C10.6665 42.2032 10.6665 42.0966 10.6665 42.0166V2.56673C10.6665 2.48676 10.6665 2.38014 10.6932 2.30017C10.7198 2.06027 10.8265 1.82038 10.9598 1.63379H27.7332C28.1598 1.63379 28.5065 1.927 28.6132 2.30017H12.2665C12.1332 2.30017 11.9998 2.40679 11.9998 2.56673V42.0166C11.9998 42.1499 12.1332 42.2832 12.2665 42.2832Z" fill="black"/>
<path d="M10.6933 42.2831C10.72 42.523 10.8267 42.7629 10.96 42.9495C11.2533 43.3493 11.7333 43.6158 12.2667 43.6158H27.7333C28.2666 43.6158 28.7466 43.3493 29.04 42.9495C29.1733 42.7629 29.28 42.523 29.3066 42.2831H10.6933ZM9.49333 42.9495C9.41333 42.7362 9.35999 42.523 9.35999 42.2831H1.62667C1.49333 42.2831 1.36 42.1498 1.36 42.0165V2.56661C1.36 2.40667 1.49333 2.30005 1.62667 2.30005H9.35999C9.38666 2.06015 9.41333 1.84691 9.49333 1.63367C9.57333 1.39377 9.67999 1.18053 9.81333 0.967285H1.6C0.719999 0.967285 0 1.68698 0 2.56661V42.0165C0 42.8961 0.719999 43.6158 1.6 43.6158H9.81333C9.67999 43.4026 9.57333 43.1894 9.49333 42.9495ZM29.04 1.63367C28.7466 1.23384 28.2666 0.967285 27.7333 0.967285H12.2667C11.7333 0.967285 11.2533 1.23384 10.96 1.63367C10.8267 1.82026 10.72 2.06015 10.6933 2.30005H29.3066C29.28 2.06015 29.1733 1.82026 29.04 1.63367Z" fill="black"/>
<path d="M38.3998 0.967285H12.2665C11.7332 0.967285 11.2532 1.23384 10.9598 1.63367C10.8265 1.82026 10.7198 2.06015 10.6932 2.30005C10.6665 2.38002 10.6665 2.48664 10.6665 2.56661V42.0165C10.6665 42.0965 10.6665 42.2031 10.6932 42.2831C10.7198 42.523 10.8265 42.7629 10.9598 42.9495C11.2532 43.3493 11.7332 43.6158 12.2665 43.6158H38.3998C39.2798 43.6158 39.9998 42.8961 39.9998 42.0165V2.56661C39.9998 1.68698 39.2798 0.967285 38.3998 0.967285ZM38.6665 42.0165C38.6665 42.1498 38.5331 42.2831 38.3998 42.2831H12.2665C12.1332 42.2831 11.9998 42.1498 11.9998 42.0165V2.56661C11.9998 2.40667 12.1332 2.30005 12.2665 2.30005H38.3998C38.5331 2.30005 38.6665 2.40667 38.6665 2.56661V42.0165Z" fill="white"/>
<path d="M38.3997 1.63379H12.2663C11.8397 1.63379 11.493 1.927 11.3863 2.30017C11.3597 2.38014 11.333 2.48676 11.333 2.56673V42.0166C11.333 42.0966 11.333 42.2032 11.3863 42.2832C11.493 42.6564 11.8663 42.9496 12.2663 42.9496H38.3997C38.9063 42.9496 39.333 42.5231 39.333 42.0166V2.56673C39.333 2.06027 38.9063 1.63379 38.3997 1.63379ZM38.6663 42.0166C38.6663 42.1499 38.533 42.2832 38.3997 42.2832H12.2663C12.133 42.2832 11.9997 42.1499 11.9997 42.0166V2.56673C11.9997 2.40679 12.133 2.30017 12.2663 2.30017H38.3997C38.533 2.30017 38.6663 2.40679 38.6663 2.56673V42.0166Z" fill="white"/>
<path d="M38.3998 0.967285H12.2665C11.7332 0.967285 11.2532 1.23384 10.9598 1.63367C10.8265 1.82026 10.7198 2.06015 10.6932 2.30005C10.6665 2.38002 10.6665 2.48664 10.6665 2.56661V42.0165C10.6665 42.0965 10.6665 42.2031 10.6932 42.2831C10.7198 42.523 10.8265 42.7629 10.9598 42.9495C11.2532 43.3493 11.7332 43.6158 12.2665 43.6158H38.3998C39.2798 43.6158 39.9998 42.8961 39.9998 42.0165V2.56661C39.9998 1.68698 39.2798 0.967285 38.3998 0.967285ZM38.6665 42.0165C38.6665 42.1498 38.5331 42.2831 38.3998 42.2831H12.2665C12.1332 42.2831 11.9998 42.1498 11.9998 42.0165V2.56661C11.9998 2.40667 12.1332 2.30005 12.2665 2.30005H38.3998C38.5331 2.30005 38.6665 2.40667 38.6665 2.56661V42.0165Z" fill="black"/>
</g>
</svg>
