<svg width="85" height="39" viewBox="0 0 85 39" fill="none" xmlns="http://www.w3.org/2000/svg">
<path fill-rule="evenodd" clip-rule="evenodd" d="M15.7385 0L10.3114 10L2.53526e-06 10L5.39366 19.0615L0 29H11.3093L17.2615 39L22.6886 29H33L30.982 25.6097C31.54 25.9871 32.2088 26.1758 32.9883 26.1758C33.9727 26.1758 34.7725 25.833 35.3877 25.1475C35.4404 25.4873 35.5254 25.7715 35.6426 26H38.209V25.8506C37.9629 25.3877 37.8369 24.7051 37.8311 23.8027V19.6807C37.8311 18.6143 37.4854 17.7881 36.7939 17.2021C36.1084 16.6104 35.1797 16.3145 34.0078 16.3145C33.2344 16.3145 32.5371 16.4492 31.916 16.7188C31.2949 16.9824 30.8145 17.3486 30.4746 17.8174C30.1348 18.2861 29.9648 18.7959 29.9648 19.3467H32.5049C32.5049 18.9893 32.625 18.708 32.8652 18.5029C33.1113 18.2979 33.4482 18.1953 33.876 18.1953C34.3623 18.1953 34.7168 18.3271 34.9395 18.5908C35.168 18.8545 35.2822 19.2061 35.2822 19.6455V20.1904H34.1133C32.7012 20.1963 31.6201 20.4688 30.8701 21.0078C30.126 21.5469 29.7539 22.3203 29.7539 23.3281C29.7539 23.4069 29.7567 23.4844 29.7623 23.5606L27.6063 19.9385L28.4665 18.3535H28.7168V17.8923L33 10L21.6907 10L15.7385 0ZM28.7168 17.8923V16.4902H27.0908V14.1523H24.5508V16.4902H23.1621V18.3535H24.5508V23.4775C24.5859 25.2764 25.4941 26.1758 27.2754 26.1758C27.8027 26.1758 28.3154 26.0996 28.8135 25.9473V24.0225C28.5967 24.0635 28.3477 24.084 28.0664 24.084C27.6855 24.084 27.4277 24.0078 27.293 23.8555C27.1582 23.7031 27.0908 23.4512 27.0908 23.0996V18.3535H28.4665L28.7168 17.8923ZM29.7623 23.5606C29.8153 24.2777 30.1171 24.8799 30.668 25.3672C30.7684 25.4552 30.8731 25.536 30.982 25.6097L29.7623 23.5606ZM19.251 21.5C19.6025 21.7637 19.7783 22.1445 19.7783 22.6426C19.7783 23.0996 19.6025 23.457 19.251 23.7148C18.8994 23.9668 18.4102 24.0928 17.7832 24.0928C16.0957 24.0928 15.252 23.3867 15.252 21.9746H12.6064C12.6064 22.8008 12.8174 23.5273 13.2393 24.1543C13.667 24.7812 14.2852 25.2764 15.0938 25.6396C15.9023 25.9971 16.7988 26.1758 17.7832 26.1758C19.2012 26.1758 20.3291 25.8623 21.167 25.2354C22.0049 24.6025 22.4238 23.7324 22.4238 22.625C22.4238 21.6289 22.0811 20.7969 21.3955 20.1289C20.71 19.4609 19.6172 18.9014 18.1172 18.4502C17.3027 18.2041 16.6846 17.9404 16.2627 17.6592C15.8467 17.3779 15.6387 17.0293 15.6387 16.6133C15.6387 16.168 15.8174 15.8105 16.1748 15.541C16.5322 15.2656 17.0332 15.1279 17.6777 15.1279C18.3457 15.1279 18.8643 15.292 19.2334 15.6201C19.6025 15.9424 19.7871 16.3965 19.7871 16.9824H22.4238C22.4238 16.2148 22.2246 15.5293 21.8262 14.9258C21.4336 14.3223 20.8799 13.8564 20.165 13.5283C19.4502 13.1943 18.6357 13.0273 17.7217 13.0273C16.8135 13.0273 15.9932 13.1797 15.2607 13.4844C14.5342 13.7891 13.9746 14.2139 13.582 14.7588C13.1953 15.2979 13.002 15.9131 13.002 16.6045C13.002 17.9346 13.7285 18.9922 15.1816 19.7773C15.7148 20.0645 16.4385 20.3574 17.3525 20.6562C18.2666 20.9492 18.8994 21.2305 19.251 21.5ZM34.5791 23.9873C34.2627 24.1514 33.917 24.2334 33.542 24.2334C33.1553 24.2334 32.8506 24.1309 32.6279 23.9258C32.4053 23.7207 32.2939 23.46 32.2939 23.1436L32.3027 22.9941C32.3848 22.1152 33.0615 21.6758 34.333 21.6758H35.2822V23.3105C35.1299 23.5918 34.8955 23.8174 34.5791 23.9873ZM44.2119 18.8018C44.4756 18.8018 44.7803 18.8252 45.126 18.8721L45.1611 16.4287C44.915 16.3525 44.6514 16.3145 44.3701 16.3145C43.4678 16.3145 42.7617 16.751 42.252 17.624L42.1816 16.4902H39.7822V26H42.3223V19.7773C42.6211 19.127 43.251 18.8018 44.2119 18.8018ZM51.041 22.6426C51.3516 22.8184 51.5068 23.0615 51.5068 23.3721C51.5068 23.6709 51.3809 23.9141 51.1289 24.1016C50.8828 24.2832 50.5166 24.374 50.0303 24.374C49.5088 24.374 49.0928 24.2539 48.7822 24.0137C48.4717 23.7734 48.3047 23.4277 48.2812 22.9766H45.873C45.873 23.5508 46.0488 24.0869 46.4004 24.585C46.752 25.0771 47.2354 25.4668 47.8506 25.7539C48.4717 26.0352 49.1807 26.1758 49.9775 26.1758C51.1553 26.1758 52.1162 25.9092 52.8604 25.376C53.6045 24.8369 53.9766 24.1338 53.9766 23.2666C53.9766 22.0537 53.3057 21.2012 51.9639 20.709C51.5303 20.5508 50.9971 20.4102 50.3643 20.2871C49.7314 20.1582 49.2803 20.0088 49.0107 19.8389C48.7471 19.6631 48.6152 19.4346 48.6152 19.1533C48.6152 18.8545 48.7324 18.6084 48.9668 18.415C49.2012 18.2217 49.5322 18.125 49.96 18.125C50.458 18.125 50.8242 18.2451 51.0586 18.4854C51.293 18.7197 51.4102 19.0186 51.4102 19.3818H53.9502C53.9502 18.4736 53.5869 17.7354 52.8604 17.167C52.1396 16.5986 51.1758 16.3145 49.9688 16.3145C48.8379 16.3145 47.9209 16.5986 47.2178 17.167C46.5205 17.7295 46.1719 18.4326 46.1719 19.2764C46.1719 20.7236 47.3027 21.6846 49.5645 22.1592C50.2441 22.2998 50.7363 22.4609 51.041 22.6426ZM60.6387 16.3145C59.6191 16.3145 58.7725 16.7188 58.0986 17.5273V12.5H55.5586V26H58.0986V19.2412C58.4326 18.667 58.9717 18.3799 59.7158 18.3799C60.2607 18.3799 60.6504 18.5117 60.8848 18.7754C61.1191 19.0332 61.2363 19.4346 61.2363 19.9795V26H63.7764V19.9092C63.7471 17.5127 62.7012 16.3145 60.6387 16.3145ZM65.8418 18.6348C65.4785 19.373 65.2969 20.2139 65.2969 21.1572V21.2715C65.2969 22.7832 65.7041 23.9785 66.5186 24.8574C67.3389 25.7363 68.4346 26.1758 69.8057 26.1758C71.1768 26.1758 72.2695 25.7363 73.084 24.8574C73.8984 23.9727 74.3057 22.8008 74.3057 21.3418L74.2881 20.6914C74.1943 19.3438 73.7402 18.2773 72.9258 17.4922C72.1172 16.707 71.0713 16.3145 69.7881 16.3145C68.8857 16.3145 68.0918 16.5166 67.4062 16.9209C66.7266 17.3252 66.2051 17.8965 65.8418 18.6348ZM68.3467 23.416C68.0068 22.9355 67.8369 22.2441 67.8369 21.3418C67.8369 20.3281 68.0068 19.5811 68.3467 19.1006C68.6865 18.6143 69.167 18.3711 69.7881 18.3711C70.415 18.3711 70.9014 18.6143 71.2471 19.1006C71.5928 19.5869 71.7656 20.2725 71.7656 21.1572C71.7656 22.1943 71.5928 22.9502 71.2471 23.4248C70.9014 23.8936 70.4209 24.1279 69.8057 24.1279C69.1729 24.1279 68.6865 23.8906 68.3467 23.416ZM83.4287 24.8574C84.0967 23.9727 84.4307 22.7979 84.4307 21.333V21.2012C84.4307 19.6777 84.1055 18.4824 83.4551 17.6152C82.8047 16.748 81.8936 16.3145 80.7217 16.3145C79.7314 16.3145 78.9287 16.6836 78.3135 17.4219L78.2256 16.4902H75.8701V29.6562H78.4102V25.1738C79.002 25.8418 79.7783 26.1758 80.7393 26.1758C81.8701 26.1758 82.7666 25.7363 83.4287 24.8574ZM81.416 19.1006C81.7324 19.5811 81.8906 20.2637 81.8906 21.1484C81.8906 23.1348 81.2842 24.1279 80.0713 24.1279C79.2744 24.1279 78.7207 23.8145 78.4102 23.1875V19.2939C78.709 18.6846 79.2568 18.3799 80.0537 18.3799C80.6514 18.3799 81.1055 18.6201 81.416 19.1006Z" fill="white"/>
</svg>
