<svg width="48" height="42" viewBox="0 0 48 42" fill="none" xmlns="http://www.w3.org/2000/svg">
<g opacity="0.3">
<path d="M45.9337 0.966309H1.42063C0.639284 0.966309 0 1.60532 0 2.38634V27.9468C0 28.7278 0.639284 29.3669 1.42063 29.3669H2.36772V28.1835H1.42063C1.30224 28.1835 1.18386 28.0652 1.18386 27.9468V2.38634C1.18386 2.24433 1.30224 2.14966 1.42063 2.14966H45.9337C46.0521 2.14966 46.1705 2.24433 46.1705 2.38634V27.9468C46.1705 28.0652 46.0521 28.1835 45.9337 28.1835H44.9866V29.3669H45.9337C46.7151 29.3669 47.3543 28.7278 47.3543 27.9468V2.38634C47.3543 1.60532 46.7151 0.966309 45.9337 0.966309Z" fill="black"/>
<path d="M45.9337 0.966309H1.42063C0.639284 0.966309 0 1.60532 0 2.38634V27.9468C0 28.7278 0.639284 29.3669 1.42063 29.3669H2.36772V28.1835H1.42063C1.30224 28.1835 1.18386 28.0652 1.18386 27.9468V2.38634C1.18386 2.24433 1.30224 2.14966 1.42063 2.14966H45.9337C46.0521 2.14966 46.1705 2.24433 46.1705 2.38634V27.9468C46.1705 28.0652 46.0521 28.1835 45.9337 28.1835H44.9866V29.3669H45.9337C46.7151 29.3669 47.3543 28.7278 47.3543 27.9468V2.38634C47.3543 1.60532 46.7151 0.966309 45.9337 0.966309Z" fill="black"/>
<path d="M45.9337 29.3668H44.9866V28.1834H2.36772V29.3668H1.42063C0.639284 29.3668 0 28.7278 0 27.9468V32.6802C0 33.4612 0.639284 34.1002 1.42063 34.1002H45.9337C46.7151 34.1002 47.3543 33.4612 47.3543 32.6802V27.9468C47.3543 28.7278 46.7151 29.3668 45.9337 29.3668ZM24.861 31.9702C24.861 32.2305 24.6479 32.4435 24.3875 32.4435H22.9669C22.7064 32.4435 22.4933 32.2305 22.4933 31.9702V30.5502C22.4933 30.2898 22.7064 30.0768 22.9669 30.0768H24.3875C24.6479 30.0768 24.861 30.2898 24.861 30.5502V31.9702Z" fill="black"/>
<path d="M28.9335 36.4668H19.0128C18.0657 36.4668 17.7579 36.7271 17.7105 37.0585C17.5448 38.1945 16.8818 39.3069 16.3136 40.0642C15.9821 40.5376 16.3136 41.1766 16.8818 41.1766H30.4252C30.9934 41.1766 31.3486 40.5139 30.9934 40.0642C30.4252 39.2832 29.7859 38.1945 29.5965 37.0585C29.5965 36.7271 29.2887 36.4668 28.9335 36.4668Z" fill="black"/>
</g>
</svg>
