<svg width="26" height="44" viewBox="0 0 26 44" fill="none" xmlns="http://www.w3.org/2000/svg">
<g opacity="0.4">
<path d="M20.5054 11.792C18.6559 12.5157 15.5466 13.159 12.5981 13.159V11.0415H17.959C18.8971 11.0415 19.7817 11.3095 20.5054 11.792Z" fill="black"/>
<path d="M22.0333 10.9342C21.9797 10.9878 21.9261 11.0682 21.8457 11.1218C20.8003 10.2376 19.4601 9.72857 17.9859 9.72857H12.625V0.994141H15.3054C17.0209 0.994141 18.4683 1.47641 18.6828 3.16435C18.6828 3.16435 18.9776 6.62062 20.7199 9.03196C21.0952 9.54103 21.524 9.9965 22.0333 10.3716C22.1941 10.5324 22.1941 10.7199 22.0333 10.9342Z" fill="black"/>
<path d="M12.5981 0.99408V9.70173H7.23726C5.76303 9.70173 4.42282 10.2376 3.37746 11.095C3.29704 11.0414 3.24345 10.961 3.18984 10.9074C3.02901 10.6931 3.029 10.5055 3.24343 10.3448C3.75271 9.96966 4.18159 9.51418 4.55684 9.00512C6.29911 6.59377 6.59395 3.1375 6.59395 3.1375C6.80838 1.44956 8.25582 0.967285 9.97128 0.967285H12.5981V0.99408Z" fill="black"/>
<path d="M12.5981 11.0415V13.159C9.64968 13.159 6.5404 12.4889 4.69092 11.792C5.41463 11.3095 6.29917 11.0415 7.23731 11.0415H12.5981Z" fill="black"/>
<path d="M20.5063 33.0658C19.7826 33.5482 18.8981 33.8163 17.9599 33.8163H12.5991V31.6987C15.5476 31.6987 18.6569 32.342 20.5063 33.0658Z" fill="black"/>
<path d="M21.9796 34.4861C21.4703 34.8612 21.0414 35.3167 20.6661 35.8257C18.9239 38.2371 18.629 41.6934 18.629 41.6934C18.4146 43.3813 16.9672 43.8636 15.2517 43.8636H12.5713V35.1559H17.9321C19.4064 35.1559 20.7466 34.6201 21.7919 33.7627C21.8723 33.8163 21.9259 33.8967 21.9796 33.9502C22.194 34.1378 22.194 34.3253 21.9796 34.4861Z" fill="black"/>
<path d="M12.5981 31.6987V33.8163H7.23731C6.29917 33.8163 5.41463 33.5482 4.69092 33.0658C6.5404 32.342 9.64968 31.6987 12.5981 31.6987Z" fill="black"/>
<path d="M12.598 35.1559V43.8635H9.91755C8.20209 43.8635 6.75468 43.3812 6.54024 41.6933C6.54024 41.6933 6.24539 38.237 4.50312 35.8257C4.12787 35.3166 3.69901 34.8611 3.18973 34.486C2.9753 34.3253 2.9753 34.1377 3.13612 33.9234C3.18973 33.8698 3.24334 33.7894 3.32375 33.7358C4.36911 34.62 5.70931 35.1291 7.18353 35.1291H12.598V35.1559Z" fill="black"/>
<path d="M20.505 11.7918C19.7813 11.3095 18.8967 11.0416 17.9586 11.0416H7.23696C6.29881 11.0416 5.41428 11.3095 4.69056 11.7918C3.40397 12.6223 2.54624 14.096 2.54624 15.7303V29.1267C2.54624 30.7878 3.40397 32.2347 4.69056 33.0652C5.41428 33.5475 6.29881 33.8154 7.23696 33.8154H17.9586C18.8967 33.8154 19.7813 33.5475 20.505 33.0652C21.7916 32.2347 22.6493 30.7878 22.6493 29.1267V15.7303C22.6493 14.0692 21.7916 12.6223 20.505 11.7918ZM10.4802 26.1259C10.3998 25.858 10.4266 25.5632 10.6143 25.3221C10.7751 25.1078 11.0431 24.9738 11.3112 24.9738C11.3916 24.9738 11.4988 24.9738 11.5792 25.0274C11.7937 25.081 12.0349 25.1078 12.2761 25.1078C12.8122 25.1078 13.3483 24.947 13.7772 24.6255C14.206 24.304 14.5545 23.8485 14.7153 23.3395C14.7957 23.0715 14.8493 22.8304 14.8493 22.5357C14.8493 22.2678 14.7957 21.9998 14.7153 21.7587C14.5545 21.2496 14.2328 20.7941 13.7772 20.4726C13.5895 20.3387 13.3751 20.2047 13.1607 20.1511C12.7854 20.0172 12.571 19.6956 12.571 19.3205C12.571 19.0258 12.705 18.7847 12.9462 18.6239C13.1607 18.4632 13.4287 18.4096 13.6699 18.49C13.6967 18.49 13.7235 18.5168 13.7504 18.5168C13.8576 18.5436 13.938 18.5971 14.0184 18.6239C14.0988 18.6775 14.206 18.7043 14.2864 18.7579C14.3668 18.8115 14.4473 18.8383 14.5277 18.8919C14.5545 18.8919 14.5545 18.9187 14.5813 18.9187C14.6617 18.9722 14.7421 19.0258 14.8225 19.0794C15.5462 19.6153 16.1091 20.3655 16.3772 21.2228C16.5112 21.6515 16.5916 22.0802 16.5916 22.5357C16.5916 22.9912 16.5112 23.4466 16.3772 23.8753C16.1091 24.7327 15.5462 25.4829 14.8225 26.0187C14.0988 26.5546 13.2143 26.8493 12.3029 26.8493C12.1957 26.8493 12.0617 26.8493 11.9545 26.8225C11.9009 26.8225 11.8473 26.8225 11.7937 26.7957C11.74 26.7957 11.6596 26.7689 11.606 26.7689C11.5524 26.7689 11.4988 26.7421 11.472 26.7421C11.4184 26.7421 11.3648 26.7153 11.3112 26.7153C11.2576 26.7153 11.204 26.6885 11.1503 26.6618H11.1236C11.0967 26.6618 11.0967 26.6618 11.0699 26.635C11.0699 26.635 11.0699 26.635 11.0431 26.635C10.7483 26.5814 10.5607 26.3938 10.4802 26.1259ZM10.8555 27.1708H10.8823C10.9091 27.1708 10.9359 27.1708 10.9627 27.1976C11.0163 27.2244 11.0967 27.2244 11.1503 27.2512C11.204 27.278 11.2844 27.278 11.338 27.3048C11.3916 27.3048 11.4452 27.3316 11.4988 27.3316C11.7669 27.3852 12.0349 27.3852 12.3029 27.3852C13.3483 27.3852 14.3132 27.0636 15.1442 26.4474C15.9483 25.858 16.5916 25.0006 16.8864 24.0361C17.0473 23.5538 17.1277 23.0447 17.1277 22.5357C17.1277 22.0266 17.0473 21.5175 16.8864 21.0353C16.5648 20.0707 15.9483 19.2134 15.1442 18.6239C15.0638 18.5703 15.0102 18.5168 14.9297 18.49C14.6617 18.3024 14.3669 18.1684 14.0452 18.0345C14.0184 18.0077 13.9648 18.0077 13.938 17.9809H13.9112C13.6968 17.9005 13.4823 17.8469 13.2411 17.7934C12.839 17.713 12.571 17.3647 12.571 16.936C12.571 16.6681 12.6782 16.4269 12.8926 16.2662C13.0802 16.1322 13.2947 16.0518 13.5091 16.0786C13.5627 16.0786 13.5895 16.1054 13.6431 16.1054C13.7236 16.1054 13.804 16.1322 13.8844 16.159C13.938 16.159 13.9916 16.1858 14.0452 16.1858C14.0988 16.2126 14.1792 16.2126 14.2328 16.2394C14.2864 16.2662 14.3668 16.293 14.4205 16.293C14.5277 16.3197 14.6617 16.3733 14.7689 16.4269C15.0369 16.5341 15.2782 16.6413 15.5194 16.7752C15.573 16.802 15.6266 16.8288 15.6803 16.8556C15.7607 16.9092 15.8679 16.9628 15.9483 17.0164C16.0287 17.0699 16.1091 17.1235 16.1895 17.1771C17.3153 17.9809 18.1462 19.1598 18.5751 20.4726C18.7895 21.1157 18.8967 21.8123 18.8967 22.5089C18.8967 23.2055 18.7895 23.9021 18.5751 24.5451C18.5483 24.5987 18.5215 24.6791 18.5215 24.7327C18.4947 24.7863 18.4679 24.8666 18.4411 24.9202C18.4143 24.9738 18.3875 25.0542 18.3607 25.1078C18.2803 25.3221 18.173 25.5365 18.0658 25.724C18.039 25.7776 17.9854 25.858 17.9586 25.9116C17.905 25.9919 17.8514 26.0991 17.771 26.1795C17.7174 26.2331 17.6906 26.3135 17.6369 26.367C17.5833 26.4474 17.5029 26.5546 17.4225 26.635C17.3689 26.7153 17.2885 26.7957 17.2349 26.8493C17.2081 26.8761 17.1813 26.9297 17.1545 26.9565C17.0741 27.0369 16.9936 27.1172 16.9132 27.1976C16.6988 27.412 16.4308 27.6263 16.1895 27.8138C15.0638 28.6444 13.7236 29.0731 12.3297 29.0731C10.9359 29.0731 9.59571 28.6444 8.46994 27.8138C7.71942 27.2512 7.04932 26.5278 6.59365 25.724C6.45963 25.5097 6.45964 25.2417 6.54006 25.0006C6.64727 24.7595 6.83489 24.5719 7.10293 24.4915C7.18335 24.4648 7.29056 24.438 7.37098 24.438C7.66582 24.438 7.96066 24.5987 8.12149 24.8666C8.46994 25.4829 8.92562 26.0187 9.48851 26.4206C9.89057 26.7957 10.373 27.0369 10.8555 27.1708ZM18.4679 28.9124C18.2803 29.0999 18.039 29.1803 17.771 29.1535C17.5029 29.1267 17.2885 28.9927 17.1277 28.8052C16.8596 28.4569 16.9132 27.9746 17.2349 27.6531C17.2617 27.6263 17.2617 27.6263 17.2885 27.5995C17.3421 27.5459 17.4225 27.4655 17.4761 27.3852C17.5833 27.278 17.6638 27.1708 17.7442 27.0636C17.8246 26.9565 17.9318 26.8493 18.0122 26.7421C18.0658 26.6618 18.1194 26.5814 18.173 26.501C18.2266 26.4474 18.2534 26.367 18.3071 26.2867C18.3339 26.2331 18.3875 26.1795 18.4143 26.0991C18.4411 26.0455 18.4679 26.0187 18.4947 25.9651C18.5215 25.9116 18.5751 25.8312 18.6019 25.7776C18.6287 25.7508 18.6287 25.6972 18.6555 25.6704C18.7091 25.59 18.7359 25.4829 18.7895 25.4025C18.8967 25.1881 18.9772 24.9738 19.0308 24.7595C19.272 24.0629 19.3792 23.3127 19.3792 22.5625C19.3792 21.8123 19.272 21.0621 19.0308 20.3655C18.5751 18.9454 17.6638 17.6862 16.4576 16.802C16.3772 16.7484 16.2968 16.6681 16.1895 16.6145C16.1627 16.5877 16.1359 16.5609 16.0823 16.5609C15.8947 16.4537 15.7071 16.3466 15.5194 16.2394C15.4658 16.2126 15.4122 16.1858 15.3586 16.159C15.1978 16.0786 15.0638 15.9982 14.8761 15.9446C14.8225 15.9179 14.7689 15.8911 14.7153 15.8911C14.6349 15.8643 14.5545 15.8375 14.4741 15.8107C14.4205 15.8107 14.3937 15.7839 14.34 15.7571C14.2328 15.7303 14.0988 15.6767 13.9648 15.6499C13.8844 15.6231 13.804 15.5963 13.7236 15.5963H13.6967C13.6699 15.5963 13.67 15.5963 13.6431 15.5963C13.6163 15.5963 13.5895 15.5963 13.5895 15.5963C13.4823 15.5696 13.3751 15.5696 13.2679 15.5428C12.839 15.4892 12.5174 15.1141 12.5174 14.6854C12.5174 14.4443 12.6246 14.2031 12.8122 14.0424C12.973 13.9084 13.1875 13.828 13.4019 13.828C13.4555 13.828 13.4823 13.828 13.5359 13.828C14.9565 14.0424 16.2968 14.5782 17.4761 15.4356C18.9772 16.5341 20.1297 18.1149 20.6926 19.8564C20.9875 20.7406 21.1215 21.6515 21.1215 22.5893C21.1215 23.527 20.9875 24.438 20.6926 25.3221C20.2906 26.6618 19.5132 27.8942 18.4679 28.9124ZM20.505 11.7918C19.7813 11.3095 18.8967 11.0416 17.9586 11.0416H7.23696C6.29881 11.0416 5.41428 11.3095 4.69056 11.7918C3.40397 12.6223 2.54624 14.096 2.54624 15.7303V29.1267C2.54624 30.7878 3.40397 32.2347 4.69056 33.0652C5.41428 33.5475 6.29881 33.8154 7.23696 33.8154H17.9586C18.8967 33.8154 19.7813 33.5475 20.505 33.0652C21.7916 32.2347 22.6493 30.7878 22.6493 29.1267V15.7303C22.6493 14.0692 21.7916 12.6223 20.505 11.7918ZM10.4802 26.1259C10.3998 25.858 10.4266 25.5632 10.6143 25.3221C10.7751 25.1078 11.0431 24.9738 11.3112 24.9738C11.3916 24.9738 11.4988 24.9738 11.5792 25.0274C11.7937 25.081 12.0349 25.1078 12.2761 25.1078C12.8122 25.1078 13.3483 24.947 13.7772 24.6255C14.206 24.304 14.5545 23.8485 14.7153 23.3395C14.7957 23.0715 14.8493 22.8304 14.8493 22.5357C14.8493 22.2678 14.7957 21.9998 14.7153 21.7587C14.5545 21.2496 14.2328 20.7941 13.7772 20.4726C13.5895 20.3387 13.3751 20.2047 13.1607 20.1511C12.7854 20.0172 12.571 19.6956 12.571 19.3205C12.571 19.0258 12.705 18.7847 12.9462 18.6239C13.1607 18.4632 13.4287 18.4096 13.6699 18.49C13.6967 18.49 13.7235 18.5168 13.7504 18.5168C13.8576 18.5436 13.938 18.5971 14.0184 18.6239C14.0988 18.6775 14.206 18.7043 14.2864 18.7579C14.3668 18.8115 14.4473 18.8383 14.5277 18.8919C14.5545 18.8919 14.5545 18.9187 14.5813 18.9187C14.6617 18.9722 14.7421 19.0258 14.8225 19.0794C15.5462 19.6153 16.1091 20.3655 16.3772 21.2228C16.5112 21.6515 16.5916 22.0802 16.5916 22.5357C16.5916 22.9912 16.5112 23.4466 16.3772 23.8753C16.1091 24.7327 15.5462 25.4829 14.8225 26.0187C14.0988 26.5546 13.2143 26.8493 12.3029 26.8493C12.1957 26.8493 12.0617 26.8493 11.9545 26.8225C11.9009 26.8225 11.8473 26.8225 11.7937 26.7957C11.74 26.7957 11.6596 26.7689 11.606 26.7689C11.5524 26.7689 11.4988 26.7421 11.472 26.7421C11.4184 26.7421 11.3648 26.7153 11.3112 26.7153C11.2576 26.7153 11.204 26.6885 11.1503 26.6618H11.1236C11.0967 26.6618 11.0967 26.6618 11.0699 26.635C11.0699 26.635 11.0699 26.635 11.0431 26.635C10.7483 26.5814 10.5607 26.3938 10.4802 26.1259ZM10.8555 27.1708H10.8823C10.9091 27.1708 10.9359 27.1708 10.9627 27.1976C11.0163 27.2244 11.0967 27.2244 11.1503 27.2512C11.204 27.278 11.2844 27.278 11.338 27.3048C11.3916 27.3048 11.4452 27.3316 11.4988 27.3316C11.7669 27.3852 12.0349 27.3852 12.3029 27.3852C13.3483 27.3852 14.3132 27.0636 15.1442 26.4474C15.9483 25.858 16.5916 25.0006 16.8864 24.0361C17.0473 23.5538 17.1277 23.0447 17.1277 22.5357C17.1277 22.0266 17.0473 21.5175 16.8864 21.0353C16.5648 20.0707 15.9483 19.2134 15.1442 18.6239C15.0638 18.5703 15.0102 18.5168 14.9297 18.49C14.6617 18.3024 14.3669 18.1684 14.0452 18.0345C14.0184 18.0077 13.9648 18.0077 13.938 17.9809H13.9112C13.6968 17.9005 13.4823 17.8469 13.2411 17.7934C12.839 17.713 12.571 17.3647 12.571 16.936C12.571 16.6681 12.6782 16.4269 12.8926 16.2662C13.0802 16.1322 13.2947 16.0518 13.5091 16.0786C13.5627 16.0786 13.5895 16.1054 13.6431 16.1054C13.7236 16.1054 13.804 16.1322 13.8844 16.159C13.938 16.159 13.9916 16.1858 14.0452 16.1858C14.0988 16.2126 14.1792 16.2126 14.2328 16.2394C14.2864 16.2662 14.3668 16.293 14.4205 16.293C14.5277 16.3197 14.6617 16.3733 14.7689 16.4269C15.0369 16.5341 15.2782 16.6413 15.5194 16.7752C15.573 16.802 15.6266 16.8288 15.6803 16.8556C15.7607 16.9092 15.8679 16.9628 15.9483 17.0164C16.0287 17.0699 16.1091 17.1235 16.1895 17.1771C17.3153 17.9809 18.1462 19.1598 18.5751 20.4726C18.7895 21.1157 18.8967 21.8123 18.8967 22.5089C18.8967 23.2055 18.7895 23.9021 18.5751 24.5451C18.5483 24.5987 18.5215 24.6791 18.5215 24.7327C18.4947 24.7863 18.4679 24.8666 18.4411 24.9202C18.4143 24.9738 18.3875 25.0542 18.3607 25.1078C18.2803 25.3221 18.173 25.5365 18.0658 25.724C18.039 25.7776 17.9854 25.858 17.9586 25.9116C17.905 25.9919 17.8514 26.0991 17.771 26.1795C17.7174 26.2331 17.6906 26.3135 17.6369 26.367C17.5833 26.4474 17.5029 26.5546 17.4225 26.635C17.3689 26.7153 17.2885 26.7957 17.2349 26.8493C17.2081 26.8761 17.1813 26.9297 17.1545 26.9565C17.0741 27.0369 16.9936 27.1172 16.9132 27.1976C16.6988 27.412 16.4308 27.6263 16.1895 27.8138C15.0638 28.6444 13.7236 29.0731 12.3297 29.0731C10.9359 29.0731 9.59571 28.6444 8.46994 27.8138C7.71942 27.2512 7.04932 26.5278 6.59365 25.724C6.45963 25.5097 6.45964 25.2417 6.54006 25.0006C6.64727 24.7595 6.83489 24.5719 7.10293 24.4915C7.18335 24.4648 7.29056 24.438 7.37098 24.438C7.66582 24.438 7.96066 24.5987 8.12149 24.8666C8.46994 25.4829 8.92562 26.0187 9.48851 26.4206C9.89057 26.7957 10.373 27.0369 10.8555 27.1708ZM18.4679 28.9124C18.2803 29.0999 18.039 29.1803 17.771 29.1535C17.5029 29.1267 17.2885 28.9927 17.1277 28.8052C16.8596 28.4569 16.9132 27.9746 17.2349 27.6531C17.2617 27.6263 17.2617 27.6263 17.2885 27.5995C17.3421 27.5459 17.4225 27.4655 17.4761 27.3852C17.5833 27.278 17.6638 27.1708 17.7442 27.0636C17.8246 26.9565 17.9318 26.8493 18.0122 26.7421C18.0658 26.6618 18.1194 26.5814 18.173 26.501C18.2266 26.4474 18.2534 26.367 18.3071 26.2867C18.3339 26.2331 18.3875 26.1795 18.4143 26.0991C18.4411 26.0455 18.4679 26.0187 18.4947 25.9651C18.5215 25.9116 18.5751 25.8312 18.6019 25.7776C18.6287 25.7508 18.6287 25.6972 18.6555 25.6704C18.7091 25.59 18.7359 25.4829 18.7895 25.4025C18.8967 25.1881 18.9772 24.9738 19.0308 24.7595C19.272 24.0629 19.3792 23.3127 19.3792 22.5625C19.3792 21.8123 19.272 21.0621 19.0308 20.3655C18.5751 18.9454 17.6638 17.6862 16.4576 16.802C16.3772 16.7484 16.2968 16.6681 16.1895 16.6145C16.1627 16.5877 16.1359 16.5609 16.0823 16.5609C15.8947 16.4537 15.7071 16.3466 15.5194 16.2394C15.4658 16.2126 15.4122 16.1858 15.3586 16.159C15.1978 16.0786 15.0638 15.9982 14.8761 15.9446C14.8225 15.9179 14.7689 15.8911 14.7153 15.8911C14.6349 15.8643 14.5545 15.8375 14.4741 15.8107C14.4205 15.8107 14.3937 15.7839 14.34 15.7571C14.2328 15.7303 14.0988 15.6767 13.9648 15.6499C13.8844 15.6231 13.804 15.5963 13.7236 15.5963H13.6967C13.6699 15.5963 13.67 15.5963 13.6431 15.5963C13.6163 15.5963 13.5895 15.5963 13.5895 15.5963C13.4823 15.5696 13.3751 15.5696 13.2679 15.5428C12.839 15.4892 12.5174 15.1141 12.5174 14.6854C12.5174 14.4443 12.6246 14.2031 12.8122 14.0424C12.973 13.9084 13.1875 13.828 13.4019 13.828C13.4555 13.828 13.4823 13.828 13.5359 13.828C14.9565 14.0424 16.2968 14.5782 17.4761 15.4356C18.9772 16.5341 20.1297 18.1149 20.6926 19.8564C20.9875 20.7406 21.1215 21.6515 21.1215 22.5893C21.1215 23.527 20.9875 24.438 20.6926 25.3221C20.2906 26.6618 19.5132 27.8942 18.4679 28.9124ZM20.505 11.7918C19.7813 11.3095 18.8967 11.0416 17.9586 11.0416H7.23696C6.29881 11.0416 5.41428 11.3095 4.69056 11.7918C3.40397 12.6223 2.54624 14.096 2.54624 15.7303V29.1267C2.54624 30.7878 3.40397 32.2347 4.69056 33.0652C5.41428 33.5475 6.29881 33.8154 7.23696 33.8154H17.9586C18.8967 33.8154 19.7813 33.5475 20.505 33.0652C21.7916 32.2347 22.6493 30.7878 22.6493 29.1267V15.7303C22.6493 14.0692 21.7916 12.6223 20.505 11.7918ZM10.4802 26.1259C10.3998 25.858 10.4266 25.5632 10.6143 25.3221C10.7751 25.1078 11.0431 24.9738 11.3112 24.9738C11.3916 24.9738 11.4988 24.9738 11.5792 25.0274C11.7937 25.081 12.0349 25.1078 12.2761 25.1078C12.8122 25.1078 13.3483 24.947 13.7772 24.6255C14.206 24.304 14.5545 23.8485 14.7153 23.3395C14.7957 23.0715 14.8493 22.8304 14.8493 22.5357C14.8493 22.2678 14.7957 21.9998 14.7153 21.7587C14.5545 21.2496 14.2328 20.7941 13.7772 20.4726C13.5895 20.3387 13.3751 20.2047 13.1607 20.1511C12.7854 20.0172 12.571 19.6956 12.571 19.3205C12.571 19.0258 12.705 18.7847 12.9462 18.6239C13.1607 18.4632 13.4287 18.4096 13.6699 18.49C13.6967 18.49 13.7235 18.5168 13.7504 18.5168C13.8576 18.5436 13.938 18.5971 14.0184 18.6239C14.0988 18.6775 14.206 18.7043 14.2864 18.7579C14.3668 18.8115 14.4473 18.8383 14.5277 18.8919C14.5545 18.8919 14.5545 18.9187 14.5813 18.9187C14.6617 18.9722 14.7421 19.0258 14.8225 19.0794C15.5462 19.6153 16.1091 20.3655 16.3772 21.2228C16.5112 21.6515 16.5916 22.0802 16.5916 22.5357C16.5916 22.9912 16.5112 23.4466 16.3772 23.8753C16.1091 24.7327 15.5462 25.4829 14.8225 26.0187C14.0988 26.5546 13.2143 26.8493 12.3029 26.8493C12.1957 26.8493 12.0617 26.8493 11.9545 26.8225C11.9009 26.8225 11.8473 26.8225 11.7937 26.7957C11.74 26.7957 11.6596 26.7689 11.606 26.7689C11.5524 26.7689 11.4988 26.7421 11.472 26.7421C11.4184 26.7421 11.3648 26.7153 11.3112 26.7153C11.2576 26.7153 11.204 26.6885 11.1503 26.6618H11.1236C11.0967 26.6618 11.0967 26.6618 11.0699 26.635C11.0699 26.635 11.0699 26.635 11.0431 26.635C10.7483 26.5814 10.5607 26.3938 10.4802 26.1259ZM10.8555 27.1708H10.8823C10.9091 27.1708 10.9359 27.1708 10.9627 27.1976C11.0163 27.2244 11.0967 27.2244 11.1503 27.2512C11.204 27.278 11.2844 27.278 11.338 27.3048C11.3916 27.3048 11.4452 27.3316 11.4988 27.3316C11.7669 27.3852 12.0349 27.3852 12.3029 27.3852C13.3483 27.3852 14.3132 27.0636 15.1442 26.4474C15.9483 25.858 16.5916 25.0006 16.8864 24.0361C17.0473 23.5538 17.1277 23.0447 17.1277 22.5357C17.1277 22.0266 17.0473 21.5175 16.8864 21.0353C16.5648 20.0707 15.9483 19.2134 15.1442 18.6239C15.0638 18.5703 15.0102 18.5168 14.9297 18.49C14.6617 18.3024 14.3669 18.1684 14.0452 18.0345C14.0184 18.0077 13.9648 18.0077 13.938 17.9809H13.9112C13.6968 17.9005 13.4823 17.8469 13.2411 17.7934C12.839 17.713 12.571 17.3647 12.571 16.936C12.571 16.6681 12.6782 16.4269 12.8926 16.2662C13.0802 16.1322 13.2947 16.0518 13.5091 16.0786C13.5627 16.0786 13.5895 16.1054 13.6431 16.1054C13.7236 16.1054 13.804 16.1322 13.8844 16.159C13.938 16.159 13.9916 16.1858 14.0452 16.1858C14.0988 16.2126 14.1792 16.2126 14.2328 16.2394C14.2864 16.2662 14.3668 16.293 14.4205 16.293C14.5277 16.3197 14.6617 16.3733 14.7689 16.4269C15.0369 16.5341 15.2782 16.6413 15.5194 16.7752C15.573 16.802 15.6266 16.8288 15.6803 16.8556C15.7607 16.9092 15.8679 16.9628 15.9483 17.0164C16.0287 17.0699 16.1091 17.1235 16.1895 17.1771C17.3153 17.9809 18.1462 19.1598 18.5751 20.4726C18.7895 21.1157 18.8967 21.8123 18.8967 22.5089C18.8967 23.2055 18.7895 23.9021 18.5751 24.5451C18.5483 24.5987 18.5215 24.6791 18.5215 24.7327C18.4947 24.7863 18.4679 24.8666 18.4411 24.9202C18.4143 24.9738 18.3875 25.0542 18.3607 25.1078C18.2803 25.3221 18.173 25.5365 18.0658 25.724C18.039 25.7776 17.9854 25.858 17.9586 25.9116C17.905 25.9919 17.8514 26.0991 17.771 26.1795C17.7174 26.2331 17.6906 26.3135 17.6369 26.367C17.5833 26.4474 17.5029 26.5546 17.4225 26.635C17.3689 26.7153 17.2885 26.7957 17.2349 26.8493C17.2081 26.8761 17.1813 26.9297 17.1545 26.9565C17.0741 27.0369 16.9936 27.1172 16.9132 27.1976C16.6988 27.412 16.4308 27.6263 16.1895 27.8138C15.0638 28.6444 13.7236 29.0731 12.3297 29.0731C10.9359 29.0731 9.59571 28.6444 8.46994 27.8138C7.71942 27.2512 7.04932 26.5278 6.59365 25.724C6.45963 25.5097 6.45964 25.2417 6.54006 25.0006C6.64727 24.7595 6.83489 24.5719 7.10293 24.4915C7.18335 24.4648 7.29056 24.438 7.37098 24.438C7.66582 24.438 7.96066 24.5987 8.12149 24.8666C8.46994 25.4829 8.92562 26.0187 9.48851 26.4206C9.89057 26.7957 10.373 27.0369 10.8555 27.1708ZM18.4679 28.9124C18.2803 29.0999 18.039 29.1803 17.771 29.1535C17.5029 29.1267 17.2885 28.9927 17.1277 28.8052C16.8596 28.4569 16.9132 27.9746 17.2349 27.6531C17.2617 27.6263 17.2617 27.6263 17.2885 27.5995C17.3421 27.5459 17.4225 27.4655 17.4761 27.3852C17.5833 27.278 17.6638 27.1708 17.7442 27.0636C17.8246 26.9565 17.9318 26.8493 18.0122 26.7421C18.0658 26.6618 18.1194 26.5814 18.173 26.501C18.2266 26.4474 18.2534 26.367 18.3071 26.2867C18.3339 26.2331 18.3875 26.1795 18.4143 26.0991C18.4411 26.0455 18.4679 26.0187 18.4947 25.9651C18.5215 25.9116 18.5751 25.8312 18.6019 25.7776C18.6287 25.7508 18.6287 25.6972 18.6555 25.6704C18.7091 25.59 18.7359 25.4829 18.7895 25.4025C18.8967 25.1881 18.9772 24.9738 19.0308 24.7595C19.272 24.0629 19.3792 23.3127 19.3792 22.5625C19.3792 21.8123 19.272 21.0621 19.0308 20.3655C18.5751 18.9454 17.6638 17.6862 16.4576 16.802C16.3772 16.7484 16.2968 16.6681 16.1895 16.6145C16.1627 16.5877 16.1359 16.5609 16.0823 16.5609C15.8947 16.4537 15.7071 16.3466 15.5194 16.2394C15.4658 16.2126 15.4122 16.1858 15.3586 16.159C15.1978 16.0786 15.0638 15.9982 14.8761 15.9446C14.8225 15.9179 14.7689 15.8911 14.7153 15.8911C14.6349 15.8643 14.5545 15.8375 14.4741 15.8107C14.4205 15.8107 14.3937 15.7839 14.34 15.7571C14.2328 15.7303 14.0988 15.6767 13.9648 15.6499C13.8844 15.6231 13.804 15.5963 13.7236 15.5963H13.6967C13.6699 15.5963 13.67 15.5963 13.6431 15.5963C13.6163 15.5963 13.5895 15.5963 13.5895 15.5963C13.4823 15.5696 13.3751 15.5696 13.2679 15.5428C12.839 15.4892 12.5174 15.1141 12.5174 14.6854C12.5174 14.4443 12.6246 14.2031 12.8122 14.0424C12.973 13.9084 13.1875 13.828 13.4019 13.828C13.4555 13.828 13.4823 13.828 13.5359 13.828C14.9565 14.0424 16.2968 14.5782 17.4761 15.4356C18.9772 16.5341 20.1297 18.1149 20.6926 19.8564C20.9875 20.7406 21.1215 21.6515 21.1215 22.5893C21.1215 23.527 20.9875 24.438 20.6926 25.3221C20.2906 26.6618 19.5132 27.8942 18.4679 28.9124ZM20.505 11.7918C19.7813 11.3095 18.8967 11.0416 17.9586 11.0416H7.23696C6.29881 11.0416 5.41428 11.3095 4.69056 11.7918C3.40397 12.6223 2.54624 14.096 2.54624 15.7303V29.1267C2.54624 30.7878 3.40397 32.2347 4.69056 33.0652C5.41428 33.5475 6.29881 33.8154 7.23696 33.8154H17.9586C18.8967 33.8154 19.7813 33.5475 20.505 33.0652C21.7916 32.2347 22.6493 30.7878 22.6493 29.1267V15.7303C22.6493 14.0692 21.7916 12.6223 20.505 11.7918ZM10.4802 26.1259C10.3998 25.858 10.4266 25.5632 10.6143 25.3221C10.7751 25.1078 11.0431 24.9738 11.3112 24.9738C11.3916 24.9738 11.4988 24.9738 11.5792 25.0274C11.7937 25.081 12.0349 25.1078 12.2761 25.1078C12.8122 25.1078 13.3483 24.947 13.7772 24.6255C14.206 24.304 14.5545 23.8485 14.7153 23.3395C14.7957 23.0715 14.8493 22.8304 14.8493 22.5357C14.8493 22.2678 14.7957 21.9998 14.7153 21.7587C14.5545 21.2496 14.2328 20.7941 13.7772 20.4726C13.5895 20.3387 13.3751 20.2047 13.1607 20.1511C12.7854 20.0172 12.571 19.6956 12.571 19.3205C12.571 19.0258 12.705 18.7847 12.9462 18.6239C13.1607 18.4632 13.4287 18.4096 13.6699 18.49C13.6967 18.49 13.7235 18.5168 13.7504 18.5168C13.8576 18.5436 13.938 18.5971 14.0184 18.6239C14.0988 18.6775 14.206 18.7043 14.2864 18.7579C14.3668 18.8115 14.4473 18.8383 14.5277 18.8919C14.5545 18.8919 14.5545 18.9187 14.5813 18.9187C14.6617 18.9722 14.7421 19.0258 14.8225 19.0794C15.5462 19.6153 16.1091 20.3655 16.3772 21.2228C16.5112 21.6515 16.5916 22.0802 16.5916 22.5357C16.5916 22.9912 16.5112 23.4466 16.3772 23.8753C16.1091 24.7327 15.5462 25.4829 14.8225 26.0187C14.0988 26.5546 13.2143 26.8493 12.3029 26.8493C12.1957 26.8493 12.0617 26.8493 11.9545 26.8225C11.9009 26.8225 11.8473 26.8225 11.7937 26.7957C11.74 26.7957 11.6596 26.7689 11.606 26.7689C11.5524 26.7689 11.4988 26.7421 11.472 26.7421C11.4184 26.7421 11.3648 26.7153 11.3112 26.7153C11.2576 26.7153 11.204 26.6885 11.1503 26.6618H11.1236C11.0967 26.6618 11.0967 26.6618 11.0699 26.635C11.0699 26.635 11.0699 26.635 11.0431 26.635C10.7483 26.5814 10.5607 26.3938 10.4802 26.1259ZM10.8555 27.1708H10.8823C10.9091 27.1708 10.9359 27.1708 10.9627 27.1976C11.0163 27.2244 11.0967 27.2244 11.1503 27.2512C11.204 27.278 11.2844 27.278 11.338 27.3048C11.3916 27.3048 11.4452 27.3316 11.4988 27.3316C11.7669 27.3852 12.0349 27.3852 12.3029 27.3852C13.3483 27.3852 14.3132 27.0636 15.1442 26.4474C15.9483 25.858 16.5916 25.0006 16.8864 24.0361C17.0473 23.5538 17.1277 23.0447 17.1277 22.5357C17.1277 22.0266 17.0473 21.5175 16.8864 21.0353C16.5648 20.0707 15.9483 19.2134 15.1442 18.6239C15.0638 18.5703 15.0102 18.5168 14.9297 18.49C14.6617 18.3024 14.3669 18.1684 14.0452 18.0345C14.0184 18.0077 13.9648 18.0077 13.938 17.9809H13.9112C13.6968 17.9005 13.4823 17.8469 13.2411 17.7934C12.839 17.713 12.571 17.3647 12.571 16.936C12.571 16.6681 12.6782 16.4269 12.8926 16.2662C13.0802 16.1322 13.2947 16.0518 13.5091 16.0786C13.5627 16.0786 13.5895 16.1054 13.6431 16.1054C13.7236 16.1054 13.804 16.1322 13.8844 16.159C13.938 16.159 13.9916 16.1858 14.0452 16.1858C14.0988 16.2126 14.1792 16.2126 14.2328 16.2394C14.2864 16.2662 14.3668 16.293 14.4205 16.293C14.5277 16.3197 14.6617 16.3733 14.7689 16.4269C15.0369 16.5341 15.2782 16.6413 15.5194 16.7752C15.573 16.802 15.6266 16.8288 15.6803 16.8556C15.7607 16.9092 15.8679 16.9628 15.9483 17.0164C16.0287 17.0699 16.1091 17.1235 16.1895 17.1771C17.3153 17.9809 18.1462 19.1598 18.5751 20.4726C18.7895 21.1157 18.8967 21.8123 18.8967 22.5089C18.8967 23.2055 18.7895 23.9021 18.5751 24.5451C18.5483 24.5987 18.5215 24.6791 18.5215 24.7327C18.4947 24.7863 18.4679 24.8666 18.4411 24.9202C18.4143 24.9738 18.3875 25.0542 18.3607 25.1078C18.2803 25.3221 18.173 25.5365 18.0658 25.724C18.039 25.7776 17.9854 25.858 17.9586 25.9116C17.905 25.9919 17.8514 26.0991 17.771 26.1795C17.7174 26.2331 17.6906 26.3135 17.6369 26.367C17.5833 26.4474 17.5029 26.5546 17.4225 26.635C17.3689 26.7153 17.2885 26.7957 17.2349 26.8493C17.2081 26.8761 17.1813 26.9297 17.1545 26.9565C17.0741 27.0369 16.9936 27.1172 16.9132 27.1976C16.6988 27.412 16.4308 27.6263 16.1895 27.8138C15.0638 28.6444 13.7236 29.0731 12.3297 29.0731C10.9359 29.0731 9.59571 28.6444 8.46994 27.8138C7.71942 27.2512 7.04932 26.5278 6.59365 25.724C6.45963 25.5097 6.45964 25.2417 6.54006 25.0006C6.64727 24.7595 6.83489 24.5719 7.10293 24.4915C7.18335 24.4648 7.29056 24.438 7.37098 24.438C7.66582 24.438 7.96066 24.5987 8.12149 24.8666C8.46994 25.4829 8.92562 26.0187 9.48851 26.4206C9.89057 26.7957 10.373 27.0369 10.8555 27.1708ZM18.4679 28.9124C18.2803 29.0999 18.039 29.1803 17.771 29.1535C17.5029 29.1267 17.2885 28.9927 17.1277 28.8052C16.8596 28.4569 16.9132 27.9746 17.2349 27.6531C17.2617 27.6263 17.2617 27.6263 17.2885 27.5995C17.3421 27.5459 17.4225 27.4655 17.4761 27.3852C17.5833 27.278 17.6638 27.1708 17.7442 27.0636C17.8246 26.9565 17.9318 26.8493 18.0122 26.7421C18.0658 26.6618 18.1194 26.5814 18.173 26.501C18.2266 26.4474 18.2534 26.367 18.3071 26.2867C18.3339 26.2331 18.3875 26.1795 18.4143 26.0991C18.4411 26.0455 18.4679 26.0187 18.4947 25.9651C18.5215 25.9116 18.5751 25.8312 18.6019 25.7776C18.6287 25.7508 18.6287 25.6972 18.6555 25.6704C18.7091 25.59 18.7359 25.4829 18.7895 25.4025C18.8967 25.1881 18.9772 24.9738 19.0308 24.7595C19.272 24.0629 19.3792 23.3127 19.3792 22.5625C19.3792 21.8123 19.272 21.0621 19.0308 20.3655C18.5751 18.9454 17.6638 17.6862 16.4576 16.802C16.3772 16.7484 16.2968 16.6681 16.1895 16.6145C16.1627 16.5877 16.1359 16.5609 16.0823 16.5609C15.8947 16.4537 15.7071 16.3466 15.5194 16.2394C15.4658 16.2126 15.4122 16.1858 15.3586 16.159C15.1978 16.0786 15.0638 15.9982 14.8761 15.9446C14.8225 15.9179 14.7689 15.8911 14.7153 15.8911C14.6349 15.8643 14.5545 15.8375 14.4741 15.8107C14.4205 15.8107 14.3937 15.7839 14.34 15.7571C14.2328 15.7303 14.0988 15.6767 13.9648 15.6499C13.8844 15.6231 13.804 15.5963 13.7236 15.5963H13.6967C13.6699 15.5963 13.67 15.5963 13.6431 15.5963C13.6163 15.5963 13.5895 15.5963 13.5895 15.5963C13.4823 15.5696 13.3751 15.5696 13.2679 15.5428C12.839 15.4892 12.5174 15.1141 12.5174 14.6854C12.5174 14.4443 12.6246 14.2031 12.8122 14.0424C12.973 13.9084 13.1875 13.828 13.4019 13.828C13.4555 13.828 13.4823 13.828 13.5359 13.828C14.9565 14.0424 16.2968 14.5782 17.4761 15.4356C18.9772 16.5341 20.1297 18.1149 20.6926 19.8564C20.9875 20.7406 21.1215 21.6515 21.1215 22.5893C21.1215 23.527 20.9875 24.438 20.6926 25.3221C20.2906 26.6618 19.5132 27.8942 18.4679 28.9124ZM20.505 11.7918C19.7813 11.3095 18.8967 11.0416 17.9586 11.0416H7.23696C6.29881 11.0416 5.41428 11.3095 4.69056 11.7918C3.40397 12.6223 2.54624 14.096 2.54624 15.7303V29.1267C2.54624 30.7878 3.40397 32.2347 4.69056 33.0652C5.41428 33.5475 6.29881 33.8154 7.23696 33.8154H17.9586C18.8967 33.8154 19.7813 33.5475 20.505 33.0652C21.7916 32.2347 22.6493 30.7878 22.6493 29.1267V15.7303C22.6493 14.0692 21.7916 12.6223 20.505 11.7918ZM10.4802 26.1259C10.3998 25.858 10.4266 25.5632 10.6143 25.3221C10.7751 25.1078 11.0431 24.9738 11.3112 24.9738C11.3916 24.9738 11.4988 24.9738 11.5792 25.0274C11.7937 25.081 12.0349 25.1078 12.2761 25.1078C12.8122 25.1078 13.3483 24.947 13.7772 24.6255C14.206 24.304 14.5545 23.8485 14.7153 23.3395C14.7957 23.0715 14.8493 22.8304 14.8493 22.5357C14.8493 22.2678 14.7957 21.9998 14.7153 21.7587C14.5545 21.2496 14.2328 20.7941 13.7772 20.4726C13.5895 20.3387 13.3751 20.2047 13.1607 20.1511C12.7854 20.0172 12.571 19.6956 12.571 19.3205C12.571 19.0258 12.705 18.7847 12.9462 18.6239C13.1607 18.4632 13.4287 18.4096 13.6699 18.49C13.6967 18.49 13.7235 18.5168 13.7504 18.5168C13.8576 18.5436 13.938 18.5971 14.0184 18.6239C14.0988 18.6775 14.206 18.7043 14.2864 18.7579C14.3668 18.8115 14.4473 18.8383 14.5277 18.8919C14.5545 18.8919 14.5545 18.9187 14.5813 18.9187C14.6617 18.9722 14.7421 19.0258 14.8225 19.0794C15.5462 19.6153 16.1091 20.3655 16.3772 21.2228C16.5112 21.6515 16.5916 22.0802 16.5916 22.5357C16.5916 22.9912 16.5112 23.4466 16.3772 23.8753C16.1091 24.7327 15.5462 25.4829 14.8225 26.0187C14.0988 26.5546 13.2143 26.8493 12.3029 26.8493C12.1957 26.8493 12.0617 26.8493 11.9545 26.8225C11.9009 26.8225 11.8473 26.8225 11.7937 26.7957C11.74 26.7957 11.6596 26.7689 11.606 26.7689C11.5524 26.7689 11.4988 26.7421 11.472 26.7421C11.4184 26.7421 11.3648 26.7153 11.3112 26.7153C11.2576 26.7153 11.204 26.6885 11.1503 26.6618H11.1236C11.0967 26.6618 11.0967 26.6618 11.0699 26.635C11.0699 26.635 11.0699 26.635 11.0431 26.635C10.7483 26.5814 10.5607 26.3938 10.4802 26.1259ZM10.8555 27.1708H10.8823C10.9091 27.1708 10.9359 27.1708 10.9627 27.1976C11.0163 27.2244 11.0967 27.2244 11.1503 27.2512C11.204 27.278 11.2844 27.278 11.338 27.3048C11.3916 27.3048 11.4452 27.3316 11.4988 27.3316C11.7669 27.3852 12.0349 27.3852 12.3029 27.3852C13.3483 27.3852 14.3132 27.0636 15.1442 26.4474C15.9483 25.858 16.5916 25.0006 16.8864 24.0361C17.0473 23.5538 17.1277 23.0447 17.1277 22.5357C17.1277 22.0266 17.0473 21.5175 16.8864 21.0353C16.5648 20.0707 15.9483 19.2134 15.1442 18.6239C15.0638 18.5703 15.0102 18.5168 14.9297 18.49C14.6617 18.3024 14.3669 18.1684 14.0452 18.0345C14.0184 18.0077 13.9648 18.0077 13.938 17.9809H13.9112C13.6968 17.9005 13.4823 17.8469 13.2411 17.7934C12.839 17.713 12.571 17.3647 12.571 16.936C12.571 16.6681 12.6782 16.4269 12.8926 16.2662C13.0802 16.1322 13.2947 16.0518 13.5091 16.0786C13.5627 16.0786 13.5895 16.1054 13.6431 16.1054C13.7236 16.1054 13.804 16.1322 13.8844 16.159C13.938 16.159 13.9916 16.1858 14.0452 16.1858C14.0988 16.2126 14.1792 16.2126 14.2328 16.2394C14.2864 16.2662 14.3668 16.293 14.4205 16.293C14.5277 16.3197 14.6617 16.3733 14.7689 16.4269C15.0369 16.5341 15.2782 16.6413 15.5194 16.7752C15.573 16.802 15.6266 16.8288 15.6803 16.8556C15.7607 16.9092 15.8679 16.9628 15.9483 17.0164C16.0287 17.0699 16.1091 17.1235 16.1895 17.1771C17.3153 17.9809 18.1462 19.1598 18.5751 20.4726C18.7895 21.1157 18.8967 21.8123 18.8967 22.5089C18.8967 23.2055 18.7895 23.9021 18.5751 24.5451C18.5483 24.5987 18.5215 24.6791 18.5215 24.7327C18.4947 24.7863 18.4679 24.8666 18.4411 24.9202C18.4143 24.9738 18.3875 25.0542 18.3607 25.1078C18.2803 25.3221 18.173 25.5365 18.0658 25.724C18.039 25.7776 17.9854 25.858 17.9586 25.9116C17.905 25.9919 17.8514 26.0991 17.771 26.1795C17.7174 26.2331 17.6906 26.3135 17.6369 26.367C17.5833 26.4474 17.5029 26.5546 17.4225 26.635C17.3689 26.7153 17.2885 26.7957 17.2349 26.8493C17.2081 26.8761 17.1813 26.9297 17.1545 26.9565C17.0741 27.0369 16.9936 27.1172 16.9132 27.1976C16.6988 27.412 16.4308 27.6263 16.1895 27.8138C15.0638 28.6444 13.7236 29.0731 12.3297 29.0731C10.9359 29.0731 9.59571 28.6444 8.46994 27.8138C7.71942 27.2512 7.04932 26.5278 6.59365 25.724C6.45963 25.5097 6.45964 25.2417 6.54006 25.0006C6.64727 24.7595 6.83489 24.5719 7.10293 24.4915C7.18335 24.4648 7.29056 24.438 7.37098 24.438C7.66582 24.438 7.96066 24.5987 8.12149 24.8666C8.46994 25.4829 8.92562 26.0187 9.48851 26.4206C9.89057 26.7957 10.373 27.0369 10.8555 27.1708ZM18.4679 28.9124C18.2803 29.0999 18.039 29.1803 17.771 29.1535C17.5029 29.1267 17.2885 28.9927 17.1277 28.8052C16.8596 28.4569 16.9132 27.9746 17.2349 27.6531C17.2617 27.6263 17.2617 27.6263 17.2885 27.5995C17.3421 27.5459 17.4225 27.4655 17.4761 27.3852C17.5833 27.278 17.6638 27.1708 17.7442 27.0636C17.8246 26.9565 17.9318 26.8493 18.0122 26.7421C18.0658 26.6618 18.1194 26.5814 18.173 26.501C18.2266 26.4474 18.2534 26.367 18.3071 26.2867C18.3339 26.2331 18.3875 26.1795 18.4143 26.0991C18.4411 26.0455 18.4679 26.0187 18.4947 25.9651C18.5215 25.9116 18.5751 25.8312 18.6019 25.7776C18.6287 25.7508 18.6287 25.6972 18.6555 25.6704C18.7091 25.59 18.7359 25.4829 18.7895 25.4025C18.8967 25.1881 18.9772 24.9738 19.0308 24.7595C19.272 24.0629 19.3792 23.3127 19.3792 22.5625C19.3792 21.8123 19.272 21.0621 19.0308 20.3655C18.5751 18.9454 17.6638 17.6862 16.4576 16.802C16.3772 16.7484 16.2968 16.6681 16.1895 16.6145C16.1627 16.5877 16.1359 16.5609 16.0823 16.5609C15.8947 16.4537 15.7071 16.3466 15.5194 16.2394C15.4658 16.2126 15.4122 16.1858 15.3586 16.159C15.1978 16.0786 15.0638 15.9982 14.8761 15.9446C14.8225 15.9179 14.7689 15.8911 14.7153 15.8911C14.6349 15.8643 14.5545 15.8375 14.4741 15.8107C14.4205 15.8107 14.3937 15.7839 14.34 15.7571C14.2328 15.7303 14.0988 15.6767 13.9648 15.6499C13.8844 15.6231 13.804 15.5963 13.7236 15.5963H13.6967C13.6699 15.5963 13.67 15.5963 13.6431 15.5963C13.6163 15.5963 13.5895 15.5963 13.5895 15.5963C13.4823 15.5696 13.3751 15.5696 13.2679 15.5428C12.839 15.4892 12.5174 15.1141 12.5174 14.6854C12.5174 14.4443 12.6246 14.2031 12.8122 14.0424C12.973 13.9084 13.1875 13.828 13.4019 13.828C13.4555 13.828 13.4823 13.828 13.5359 13.828C14.9565 14.0424 16.2968 14.5782 17.4761 15.4356C18.9772 16.5341 20.1297 18.1149 20.6926 19.8564C20.9875 20.7406 21.1215 21.6515 21.1215 22.5893C21.1215 23.527 20.9875 24.438 20.6926 25.3221C20.2906 26.6618 19.5132 27.8942 18.4679 28.9124ZM20.505 11.7918C19.7813 11.3095 18.8967 11.0416 17.9586 11.0416H7.23696C6.29881 11.0416 5.41428 11.3095 4.69056 11.7918C3.40397 12.6223 2.54624 14.096 2.54624 15.7303V29.1267C2.54624 30.7878 3.40397 32.2347 4.69056 33.0652C5.41428 33.5475 6.29881 33.8154 7.23696 33.8154H17.9586C18.8967 33.8154 19.7813 33.5475 20.505 33.0652C21.7916 32.2347 22.6493 30.7878 22.6493 29.1267V15.7303C22.6493 14.0692 21.7916 12.6223 20.505 11.7918ZM10.4802 26.1259C10.3998 25.858 10.4266 25.5632 10.6143 25.3221C10.7751 25.1078 11.0431 24.9738 11.3112 24.9738C11.3916 24.9738 11.4988 24.9738 11.5792 25.0274C11.7937 25.081 12.0349 25.1078 12.2761 25.1078C12.8122 25.1078 13.3483 24.947 13.7772 24.6255C14.206 24.304 14.5545 23.8485 14.7153 23.3395C14.7957 23.0715 14.8493 22.8304 14.8493 22.5357C14.8493 22.2678 14.7957 21.9998 14.7153 21.7587C14.5545 21.2496 14.2328 20.7941 13.7772 20.4726C13.5895 20.3387 13.3751 20.2047 13.1607 20.1511C12.7854 20.0172 12.571 19.6956 12.571 19.3205C12.571 19.0258 12.705 18.7847 12.9462 18.6239C13.1607 18.4632 13.4287 18.4096 13.6699 18.49C13.6967 18.49 13.7235 18.5168 13.7504 18.5168C13.8576 18.5436 13.938 18.5971 14.0184 18.6239C14.0988 18.6775 14.206 18.7043 14.2864 18.7579C14.3668 18.8115 14.4473 18.8383 14.5277 18.8919C14.5545 18.8919 14.5545 18.9187 14.5813 18.9187C14.6617 18.9722 14.7421 19.0258 14.8225 19.0794C15.5462 19.6153 16.1091 20.3655 16.3772 21.2228C16.5112 21.6515 16.5916 22.0802 16.5916 22.5357C16.5916 22.9912 16.5112 23.4466 16.3772 23.8753C16.1091 24.7327 15.5462 25.4829 14.8225 26.0187C14.0988 26.5546 13.2143 26.8493 12.3029 26.8493C12.1957 26.8493 12.0617 26.8493 11.9545 26.8225C11.9009 26.8225 11.8473 26.8225 11.7937 26.7957C11.74 26.7957 11.6596 26.7689 11.606 26.7689C11.5524 26.7689 11.4988 26.7421 11.472 26.7421C11.4184 26.7421 11.3648 26.7153 11.3112 26.7153C11.2576 26.7153 11.204 26.6885 11.1503 26.6618H11.1236C11.0967 26.6618 11.0967 26.6618 11.0699 26.635C11.0699 26.635 11.0699 26.635 11.0431 26.635C10.7483 26.5814 10.5607 26.3938 10.4802 26.1259ZM10.8555 27.1708H10.8823C10.9091 27.1708 10.9359 27.1708 10.9627 27.1976C11.0163 27.2244 11.0967 27.2244 11.1503 27.2512C11.204 27.278 11.2844 27.278 11.338 27.3048C11.3916 27.3048 11.4452 27.3316 11.4988 27.3316C11.7669 27.3852 12.0349 27.3852 12.3029 27.3852C13.3483 27.3852 14.3132 27.0636 15.1442 26.4474C15.9483 25.858 16.5916 25.0006 16.8864 24.0361C17.0473 23.5538 17.1277 23.0447 17.1277 22.5357C17.1277 22.0266 17.0473 21.5175 16.8864 21.0353C16.5648 20.0707 15.9483 19.2134 15.1442 18.6239C15.0638 18.5703 15.0102 18.5168 14.9297 18.49C14.6617 18.3024 14.3669 18.1684 14.0452 18.0345C14.0184 18.0077 13.9648 18.0077 13.938 17.9809H13.9112C13.6968 17.9005 13.4823 17.8469 13.2411 17.7934C12.839 17.713 12.571 17.3647 12.571 16.936C12.571 16.6681 12.6782 16.4269 12.8926 16.2662C13.0802 16.1322 13.2947 16.0518 13.5091 16.0786C13.5627 16.0786 13.5895 16.1054 13.6431 16.1054C13.7236 16.1054 13.804 16.1322 13.8844 16.159C13.938 16.159 13.9916 16.1858 14.0452 16.1858C14.0988 16.2126 14.1792 16.2126 14.2328 16.2394C14.2864 16.2662 14.3668 16.293 14.4205 16.293C14.5277 16.3197 14.6617 16.3733 14.7689 16.4269C15.0369 16.5341 15.2782 16.6413 15.5194 16.7752C15.573 16.802 15.6266 16.8288 15.6803 16.8556C15.7607 16.9092 15.8679 16.9628 15.9483 17.0164C16.0287 17.0699 16.1091 17.1235 16.1895 17.1771C17.3153 17.9809 18.1462 19.1598 18.5751 20.4726C18.7895 21.1157 18.8967 21.8123 18.8967 22.5089C18.8967 23.2055 18.7895 23.9021 18.5751 24.5451C18.5483 24.5987 18.5215 24.6791 18.5215 24.7327C18.4947 24.7863 18.4679 24.8666 18.4411 24.9202C18.4143 24.9738 18.3875 25.0542 18.3607 25.1078C18.2803 25.3221 18.173 25.5365 18.0658 25.724C18.039 25.7776 17.9854 25.858 17.9586 25.9116C17.905 25.9919 17.8514 26.0991 17.771 26.1795C17.7174 26.2331 17.6906 26.3135 17.6369 26.367C17.5833 26.4474 17.5029 26.5546 17.4225 26.635C17.3689 26.7153 17.2885 26.7957 17.2349 26.8493C17.2081 26.8761 17.1813 26.9297 17.1545 26.9565C17.0741 27.0369 16.9936 27.1172 16.9132 27.1976C16.6988 27.412 16.4308 27.6263 16.1895 27.8138C15.0638 28.6444 13.7236 29.0731 12.3297 29.0731C10.9359 29.0731 9.59571 28.6444 8.46994 27.8138C7.71942 27.2512 7.04932 26.5278 6.59365 25.724C6.45963 25.5097 6.45964 25.2417 6.54006 25.0006C6.64727 24.7595 6.83489 24.5719 7.10293 24.4915C7.18335 24.4648 7.29056 24.438 7.37098 24.438C7.66582 24.438 7.96066 24.5987 8.12149 24.8666C8.46994 25.4829 8.92562 26.0187 9.48851 26.4206C9.89057 26.7957 10.373 27.0369 10.8555 27.1708ZM18.4679 28.9124C18.2803 29.0999 18.039 29.1803 17.771 29.1535C17.5029 29.1267 17.2885 28.9927 17.1277 28.8052C16.8596 28.4569 16.9132 27.9746 17.2349 27.6531C17.2617 27.6263 17.2617 27.6263 17.2885 27.5995C17.3421 27.5459 17.4225 27.4655 17.4761 27.3852C17.5833 27.278 17.6638 27.1708 17.7442 27.0636C17.8246 26.9565 17.9318 26.8493 18.0122 26.7421C18.0658 26.6618 18.1194 26.5814 18.173 26.501C18.2266 26.4474 18.2534 26.367 18.3071 26.2867C18.3339 26.2331 18.3875 26.1795 18.4143 26.0991C18.4411 26.0455 18.4679 26.0187 18.4947 25.9651C18.5215 25.9116 18.5751 25.8312 18.6019 25.7776C18.6287 25.7508 18.6287 25.6972 18.6555 25.6704C18.7091 25.59 18.7359 25.4829 18.7895 25.4025C18.8967 25.1881 18.9772 24.9738 19.0308 24.7595C19.272 24.0629 19.3792 23.3127 19.3792 22.5625C19.3792 21.8123 19.272 21.0621 19.0308 20.3655C18.5751 18.9454 17.6638 17.6862 16.4576 16.802C16.3772 16.7484 16.2968 16.6681 16.1895 16.6145C16.1627 16.5877 16.1359 16.5609 16.0823 16.5609C15.8947 16.4537 15.7071 16.3466 15.5194 16.2394C15.4658 16.2126 15.4122 16.1858 15.3586 16.159C15.1978 16.0786 15.0638 15.9982 14.8761 15.9446C14.8225 15.9179 14.7689 15.8911 14.7153 15.8911C14.6349 15.8643 14.5545 15.8375 14.4741 15.8107C14.4205 15.8107 14.3937 15.7839 14.34 15.7571C14.2328 15.7303 14.0988 15.6767 13.9648 15.6499C13.8844 15.6231 13.804 15.5963 13.7236 15.5963H13.6967C13.6699 15.5963 13.67 15.5963 13.6431 15.5963C13.6163 15.5963 13.5895 15.5963 13.5895 15.5963C13.4823 15.5696 13.3751 15.5696 13.2679 15.5428C12.839 15.4892 12.5174 15.1141 12.5174 14.6854C12.5174 14.4443 12.6246 14.2031 12.8122 14.0424C12.973 13.9084 13.1875 13.828 13.4019 13.828C13.4555 13.828 13.4823 13.828 13.5359 13.828C14.9565 14.0424 16.2968 14.5782 17.4761 15.4356C18.9772 16.5341 20.1297 18.1149 20.6926 19.8564C20.9875 20.7406 21.1215 21.6515 21.1215 22.5893C21.1215 23.527 20.9875 24.438 20.6926 25.3221C20.2906 26.6618 19.5132 27.8942 18.4679 28.9124ZM24.204 14.8997C23.9895 13.2922 23.1854 11.8989 22.0328 10.9076C20.9339 9.96987 19.5132 9.40723 17.9586 9.40723H7.23696C5.68232 9.40723 4.2617 9.96987 3.16273 10.9076C1.79572 12.0597 0.937988 13.8012 0.937988 15.7035V29.0999C0.937988 31.029 1.79572 32.7437 3.16273 33.8958C4.2617 34.8335 5.68232 35.3962 7.23696 35.3962H17.9586C19.5132 35.3962 20.9339 34.8335 22.0328 33.8958C23.3998 32.7437 24.2576 31.0022 24.2576 29.0999V15.7035C24.2576 15.4624 24.2308 15.1677 24.204 14.8997ZM23.9895 29.1267C23.9895 30.9754 23.1586 32.6365 21.8184 33.735C20.773 34.6192 19.4328 35.1283 17.9586 35.1283H7.23696C5.76273 35.1283 4.42252 34.5924 3.37716 33.735C2.06375 32.6365 1.20603 30.9754 1.20603 29.1267V15.7303C1.20603 13.8816 2.06375 12.2205 3.37716 11.122C4.42252 10.2378 5.76273 9.72873 7.23696 9.72873H17.9586C19.4328 9.72873 20.773 10.2646 21.8184 11.122C23.1318 12.2205 23.9895 13.8816 23.9895 15.7303V29.1267ZM20.505 11.7918C19.7813 11.3095 18.8967 11.0416 17.9586 11.0416H7.23696C6.29881 11.0416 5.41428 11.3095 4.69056 11.7918C3.40397 12.6223 2.54624 14.096 2.54624 15.7303V29.1267C2.54624 30.7878 3.40397 32.2347 4.69056 33.0652C5.41428 33.5475 6.29881 33.8154 7.23696 33.8154H17.9586C18.8967 33.8154 19.7813 33.5475 20.505 33.0652C21.7916 32.2347 22.6493 30.7878 22.6493 29.1267V15.7303C22.6493 14.0692 21.7916 12.6223 20.505 11.7918ZM10.4802 26.1259C10.3998 25.858 10.4266 25.5632 10.6143 25.3221C10.7751 25.1078 11.0431 24.9738 11.3112 24.9738C11.3916 24.9738 11.4988 24.9738 11.5792 25.0274C11.7937 25.081 12.0349 25.1078 12.2761 25.1078C12.8122 25.1078 13.3483 24.947 13.7772 24.6255C14.206 24.304 14.5545 23.8485 14.7153 23.3395C14.7957 23.0715 14.8493 22.8304 14.8493 22.5357C14.8493 22.2678 14.7957 21.9998 14.7153 21.7587C14.5545 21.2496 14.2328 20.7941 13.7772 20.4726C13.5895 20.3387 13.3751 20.2047 13.1607 20.1511C12.7854 20.0172 12.571 19.6956 12.571 19.3205C12.571 19.0258 12.705 18.7847 12.9462 18.6239C13.1607 18.4632 13.4287 18.4096 13.6699 18.49C13.6967 18.49 13.7235 18.5168 13.7504 18.5168C13.8576 18.5436 13.938 18.5971 14.0184 18.6239C14.0988 18.6775 14.206 18.7043 14.2864 18.7579C14.3668 18.8115 14.4473 18.8383 14.5277 18.8919C14.5545 18.8919 14.5545 18.9187 14.5813 18.9187C14.6617 18.9722 14.7421 19.0258 14.8225 19.0794C15.5462 19.6153 16.1091 20.3655 16.3772 21.2228C16.5112 21.6515 16.5916 22.0802 16.5916 22.5357C16.5916 22.9912 16.5112 23.4466 16.3772 23.8753C16.1091 24.7327 15.5462 25.4829 14.8225 26.0187C14.0988 26.5546 13.2143 26.8493 12.3029 26.8493C12.1957 26.8493 12.0617 26.8493 11.9545 26.8225C11.9009 26.8225 11.8473 26.8225 11.7937 26.7957C11.74 26.7957 11.6596 26.7689 11.606 26.7689C11.5524 26.7689 11.4988 26.7421 11.472 26.7421C11.4184 26.7421 11.3648 26.7153 11.3112 26.7153C11.2576 26.7153 11.204 26.6885 11.1503 26.6618H11.1236C11.0967 26.6618 11.0967 26.6618 11.0699 26.635C11.0699 26.635 11.0699 26.635 11.0431 26.635C10.7483 26.5814 10.5607 26.3938 10.4802 26.1259ZM10.8555 27.1708H10.8823C10.9091 27.1708 10.9359 27.1708 10.9627 27.1976C11.0163 27.2244 11.0967 27.2244 11.1503 27.2512C11.204 27.278 11.2844 27.278 11.338 27.3048C11.3916 27.3048 11.4452 27.3316 11.4988 27.3316C11.7669 27.3852 12.0349 27.3852 12.3029 27.3852C13.3483 27.3852 14.3132 27.0636 15.1442 26.4474C15.9483 25.858 16.5916 25.0006 16.8864 24.0361C17.0473 23.5538 17.1277 23.0447 17.1277 22.5357C17.1277 22.0266 17.0473 21.5175 16.8864 21.0353C16.5648 20.0707 15.9483 19.2134 15.1442 18.6239C15.0638 18.5703 15.0102 18.5168 14.9297 18.49C14.6617 18.3024 14.3669 18.1684 14.0452 18.0345C14.0184 18.0077 13.9648 18.0077 13.938 17.9809H13.9112C13.6968 17.9005 13.4823 17.8469 13.2411 17.7934C12.839 17.713 12.571 17.3647 12.571 16.936C12.571 16.6681 12.6782 16.4269 12.8926 16.2662C13.0802 16.1322 13.2947 16.0518 13.5091 16.0786C13.5627 16.0786 13.5895 16.1054 13.6431 16.1054C13.7236 16.1054 13.804 16.1322 13.8844 16.159C13.938 16.159 13.9916 16.1858 14.0452 16.1858C14.0988 16.2126 14.1792 16.2126 14.2328 16.2394C14.2864 16.2662 14.3668 16.293 14.4205 16.293C14.5277 16.3197 14.6617 16.3733 14.7689 16.4269C15.0369 16.5341 15.2782 16.6413 15.5194 16.7752C15.573 16.802 15.6266 16.8288 15.6803 16.8556C15.7607 16.9092 15.8679 16.9628 15.9483 17.0164C16.0287 17.0699 16.1091 17.1235 16.1895 17.1771C17.3153 17.9809 18.1462 19.1598 18.5751 20.4726C18.7895 21.1157 18.8967 21.8123 18.8967 22.5089C18.8967 23.2055 18.7895 23.9021 18.5751 24.5451C18.5483 24.5987 18.5215 24.6791 18.5215 24.7327C18.4947 24.7863 18.4679 24.8666 18.4411 24.9202C18.4143 24.9738 18.3875 25.0542 18.3607 25.1078C18.2803 25.3221 18.173 25.5365 18.0658 25.724C18.039 25.7776 17.9854 25.858 17.9586 25.9116C17.905 25.9919 17.8514 26.0991 17.771 26.1795C17.7174 26.2331 17.6906 26.3135 17.6369 26.367C17.5833 26.4474 17.5029 26.5546 17.4225 26.635C17.3689 26.7153 17.2885 26.7957 17.2349 26.8493C17.2081 26.8761 17.1813 26.9297 17.1545 26.9565C17.0741 27.0369 16.9936 27.1172 16.9132 27.1976C16.6988 27.412 16.4308 27.6263 16.1895 27.8138C15.0638 28.6444 13.7236 29.0731 12.3297 29.0731C10.9359 29.0731 9.59571 28.6444 8.46994 27.8138C7.71942 27.2512 7.04932 26.5278 6.59365 25.724C6.45963 25.5097 6.45964 25.2417 6.54006 25.0006C6.64727 24.7595 6.83489 24.5719 7.10293 24.4915C7.18335 24.4648 7.29056 24.438 7.37098 24.438C7.66582 24.438 7.96066 24.5987 8.12149 24.8666C8.46994 25.4829 8.92562 26.0187 9.48851 26.4206C9.89057 26.7957 10.373 27.0369 10.8555 27.1708ZM18.4679 28.9124C18.2803 29.0999 18.039 29.1803 17.771 29.1535C17.5029 29.1267 17.2885 28.9927 17.1277 28.8052C16.8596 28.4569 16.9132 27.9746 17.2349 27.6531C17.2617 27.6263 17.2617 27.6263 17.2885 27.5995C17.3421 27.5459 17.4225 27.4655 17.4761 27.3852C17.5833 27.278 17.6638 27.1708 17.7442 27.0636C17.8246 26.9565 17.9318 26.8493 18.0122 26.7421C18.0658 26.6618 18.1194 26.5814 18.173 26.501C18.2266 26.4474 18.2534 26.367 18.3071 26.2867C18.3339 26.2331 18.3875 26.1795 18.4143 26.0991C18.4411 26.0455 18.4679 26.0187 18.4947 25.9651C18.5215 25.9116 18.5751 25.8312 18.6019 25.7776C18.6287 25.7508 18.6287 25.6972 18.6555 25.6704C18.7091 25.59 18.7359 25.4829 18.7895 25.4025C18.8967 25.1881 18.9772 24.9738 19.0308 24.7595C19.272 24.0629 19.3792 23.3127 19.3792 22.5625C19.3792 21.8123 19.272 21.0621 19.0308 20.3655C18.5751 18.9454 17.6638 17.6862 16.4576 16.802C16.3772 16.7484 16.2968 16.6681 16.1895 16.6145C16.1627 16.5877 16.1359 16.5609 16.0823 16.5609C15.8947 16.4537 15.7071 16.3466 15.5194 16.2394C15.4658 16.2126 15.4122 16.1858 15.3586 16.159C15.1978 16.0786 15.0638 15.9982 14.8761 15.9446C14.8225 15.9179 14.7689 15.8911 14.7153 15.8911C14.6349 15.8643 14.5545 15.8375 14.4741 15.8107C14.4205 15.8107 14.3937 15.7839 14.34 15.7571C14.2328 15.7303 14.0988 15.6767 13.9648 15.6499C13.8844 15.6231 13.804 15.5963 13.7236 15.5963H13.6967C13.6699 15.5963 13.67 15.5963 13.6431 15.5963C13.6163 15.5963 13.5895 15.5963 13.5895 15.5963C13.4823 15.5696 13.3751 15.5696 13.2679 15.5428C12.839 15.4892 12.5174 15.1141 12.5174 14.6854C12.5174 14.4443 12.6246 14.2031 12.8122 14.0424C12.973 13.9084 13.1875 13.828 13.4019 13.828C13.4555 13.828 13.4823 13.828 13.5359 13.828C14.9565 14.0424 16.2968 14.5782 17.4761 15.4356C18.9772 16.5341 20.1297 18.1149 20.6926 19.8564C20.9875 20.7406 21.1215 21.6515 21.1215 22.5893C21.1215 23.527 20.9875 24.438 20.6926 25.3221C20.2906 26.6618 19.5132 27.8942 18.4679 28.9124ZM20.505 11.7918C19.7813 11.3095 18.8967 11.0416 17.9586 11.0416H7.23696C6.29881 11.0416 5.41428 11.3095 4.69056 11.7918C3.40397 12.6223 2.54624 14.096 2.54624 15.7303V29.1267C2.54624 30.7878 3.40397 32.2347 4.69056 33.0652C5.41428 33.5475 6.29881 33.8154 7.23696 33.8154H17.9586C18.8967 33.8154 19.7813 33.5475 20.505 33.0652C21.7916 32.2347 22.6493 30.7878 22.6493 29.1267V15.7303C22.6493 14.0692 21.7916 12.6223 20.505 11.7918ZM10.4802 26.1259C10.3998 25.858 10.4266 25.5632 10.6143 25.3221C10.7751 25.1078 11.0431 24.9738 11.3112 24.9738C11.3916 24.9738 11.4988 24.9738 11.5792 25.0274C11.7937 25.081 12.0349 25.1078 12.2761 25.1078C12.8122 25.1078 13.3483 24.947 13.7772 24.6255C14.206 24.304 14.5545 23.8485 14.7153 23.3395C14.7957 23.0715 14.8493 22.8304 14.8493 22.5357C14.8493 22.2678 14.7957 21.9998 14.7153 21.7587C14.5545 21.2496 14.2328 20.7941 13.7772 20.4726C13.5895 20.3387 13.3751 20.2047 13.1607 20.1511C12.7854 20.0172 12.571 19.6956 12.571 19.3205C12.571 19.0258 12.705 18.7847 12.9462 18.6239C13.1607 18.4632 13.4287 18.4096 13.6699 18.49C13.6967 18.49 13.7235 18.5168 13.7504 18.5168C13.8576 18.5436 13.938 18.5971 14.0184 18.6239C14.0988 18.6775 14.206 18.7043 14.2864 18.7579C14.3668 18.8115 14.4473 18.8383 14.5277 18.8919C14.5545 18.8919 14.5545 18.9187 14.5813 18.9187C14.6617 18.9722 14.7421 19.0258 14.8225 19.0794C15.5462 19.6153 16.1091 20.3655 16.3772 21.2228C16.5112 21.6515 16.5916 22.0802 16.5916 22.5357C16.5916 22.9912 16.5112 23.4466 16.3772 23.8753C16.1091 24.7327 15.5462 25.4829 14.8225 26.0187C14.0988 26.5546 13.2143 26.8493 12.3029 26.8493C12.1957 26.8493 12.0617 26.8493 11.9545 26.8225C11.9009 26.8225 11.8473 26.8225 11.7937 26.7957C11.74 26.7957 11.6596 26.7689 11.606 26.7689C11.5524 26.7689 11.4988 26.7421 11.472 26.7421C11.4184 26.7421 11.3648 26.7153 11.3112 26.7153C11.2576 26.7153 11.204 26.6885 11.1503 26.6618H11.1236C11.0967 26.6618 11.0967 26.6618 11.0699 26.635C11.0699 26.635 11.0699 26.635 11.0431 26.635C10.7483 26.5814 10.5607 26.3938 10.4802 26.1259ZM10.8555 27.1708H10.8823C10.9091 27.1708 10.9359 27.1708 10.9627 27.1976C11.0163 27.2244 11.0967 27.2244 11.1503 27.2512C11.204 27.278 11.2844 27.278 11.338 27.3048C11.3916 27.3048 11.4452 27.3316 11.4988 27.3316C11.7669 27.3852 12.0349 27.3852 12.3029 27.3852C13.3483 27.3852 14.3132 27.0636 15.1442 26.4474C15.9483 25.858 16.5916 25.0006 16.8864 24.0361C17.0473 23.5538 17.1277 23.0447 17.1277 22.5357C17.1277 22.0266 17.0473 21.5175 16.8864 21.0353C16.5648 20.0707 15.9483 19.2134 15.1442 18.6239C15.0638 18.5703 15.0102 18.5168 14.9297 18.49C14.6617 18.3024 14.3669 18.1684 14.0452 18.0345C14.0184 18.0077 13.9648 18.0077 13.938 17.9809H13.9112C13.6968 17.9005 13.4823 17.8469 13.2411 17.7934C12.839 17.713 12.571 17.3647 12.571 16.936C12.571 16.6681 12.6782 16.4269 12.8926 16.2662C13.0802 16.1322 13.2947 16.0518 13.5091 16.0786C13.5627 16.0786 13.5895 16.1054 13.6431 16.1054C13.7236 16.1054 13.804 16.1322 13.8844 16.159C13.938 16.159 13.9916 16.1858 14.0452 16.1858C14.0988 16.2126 14.1792 16.2126 14.2328 16.2394C14.2864 16.2662 14.3668 16.293 14.4205 16.293C14.5277 16.3197 14.6617 16.3733 14.7689 16.4269C15.0369 16.5341 15.2782 16.6413 15.5194 16.7752C15.573 16.802 15.6266 16.8288 15.6803 16.8556C15.7607 16.9092 15.8679 16.9628 15.9483 17.0164C16.0287 17.0699 16.1091 17.1235 16.1895 17.1771C17.3153 17.9809 18.1462 19.1598 18.5751 20.4726C18.7895 21.1157 18.8967 21.8123 18.8967 22.5089C18.8967 23.2055 18.7895 23.9021 18.5751 24.5451C18.5483 24.5987 18.5215 24.6791 18.5215 24.7327C18.4947 24.7863 18.4679 24.8666 18.4411 24.9202C18.4143 24.9738 18.3875 25.0542 18.3607 25.1078C18.2803 25.3221 18.173 25.5365 18.0658 25.724C18.039 25.7776 17.9854 25.858 17.9586 25.9116C17.905 25.9919 17.8514 26.0991 17.771 26.1795C17.7174 26.2331 17.6906 26.3135 17.6369 26.367C17.5833 26.4474 17.5029 26.5546 17.4225 26.635C17.3689 26.7153 17.2885 26.7957 17.2349 26.8493C17.2081 26.8761 17.1813 26.9297 17.1545 26.9565C17.0741 27.0369 16.9936 27.1172 16.9132 27.1976C16.6988 27.412 16.4308 27.6263 16.1895 27.8138C15.0638 28.6444 13.7236 29.0731 12.3297 29.0731C10.9359 29.0731 9.59571 28.6444 8.46994 27.8138C7.71942 27.2512 7.04932 26.5278 6.59365 25.724C6.45963 25.5097 6.45964 25.2417 6.54006 25.0006C6.64727 24.7595 6.83489 24.5719 7.10293 24.4915C7.18335 24.4648 7.29056 24.438 7.37098 24.438C7.66582 24.438 7.96066 24.5987 8.12149 24.8666C8.46994 25.4829 8.92562 26.0187 9.48851 26.4206C9.89057 26.7957 10.373 27.0369 10.8555 27.1708ZM18.4679 28.9124C18.2803 29.0999 18.039 29.1803 17.771 29.1535C17.5029 29.1267 17.2885 28.9927 17.1277 28.8052C16.8596 28.4569 16.9132 27.9746 17.2349 27.6531C17.2617 27.6263 17.2617 27.6263 17.2885 27.5995C17.3421 27.5459 17.4225 27.4655 17.4761 27.3852C17.5833 27.278 17.6638 27.1708 17.7442 27.0636C17.8246 26.9565 17.9318 26.8493 18.0122 26.7421C18.0658 26.6618 18.1194 26.5814 18.173 26.501C18.2266 26.4474 18.2534 26.367 18.3071 26.2867C18.3339 26.2331 18.3875 26.1795 18.4143 26.0991C18.4411 26.0455 18.4679 26.0187 18.4947 25.9651C18.5215 25.9116 18.5751 25.8312 18.6019 25.7776C18.6287 25.7508 18.6287 25.6972 18.6555 25.6704C18.7091 25.59 18.7359 25.4829 18.7895 25.4025C18.8967 25.1881 18.9772 24.9738 19.0308 24.7595C19.272 24.0629 19.3792 23.3127 19.3792 22.5625C19.3792 21.8123 19.272 21.0621 19.0308 20.3655C18.5751 18.9454 17.6638 17.6862 16.4576 16.802C16.3772 16.7484 16.2968 16.6681 16.1895 16.6145C16.1627 16.5877 16.1359 16.5609 16.0823 16.5609C15.8947 16.4537 15.7071 16.3466 15.5194 16.2394C15.4658 16.2126 15.4122 16.1858 15.3586 16.159C15.1978 16.0786 15.0638 15.9982 14.8761 15.9446C14.8225 15.9179 14.7689 15.8911 14.7153 15.8911C14.6349 15.8643 14.5545 15.8375 14.4741 15.8107C14.4205 15.8107 14.3937 15.7839 14.34 15.7571C14.2328 15.7303 14.0988 15.6767 13.9648 15.6499C13.8844 15.6231 13.804 15.5963 13.7236 15.5963H13.6967C13.6699 15.5963 13.67 15.5963 13.6431 15.5963C13.6163 15.5963 13.5895 15.5963 13.5895 15.5963C13.4823 15.5696 13.3751 15.5696 13.2679 15.5428C12.839 15.4892 12.5174 15.1141 12.5174 14.6854C12.5174 14.4443 12.6246 14.2031 12.8122 14.0424C12.973 13.9084 13.1875 13.828 13.4019 13.828C13.4555 13.828 13.4823 13.828 13.5359 13.828C14.9565 14.0424 16.2968 14.5782 17.4761 15.4356C18.9772 16.5341 20.1297 18.1149 20.6926 19.8564C20.9875 20.7406 21.1215 21.6515 21.1215 22.5893C21.1215 23.527 20.9875 24.438 20.6926 25.3221C20.2906 26.6618 19.5132 27.8942 18.4679 28.9124ZM20.505 11.7918C19.7813 11.3095 18.8967 11.0416 17.9586 11.0416H7.23696C6.29881 11.0416 5.41428 11.3095 4.69056 11.7918C3.40397 12.6223 2.54624 14.096 2.54624 15.7303V29.1267C2.54624 30.7878 3.40397 32.2347 4.69056 33.0652C5.41428 33.5475 6.29881 33.8154 7.23696 33.8154H17.9586C18.8967 33.8154 19.7813 33.5475 20.505 33.0652C21.7916 32.2347 22.6493 30.7878 22.6493 29.1267V15.7303C22.6493 14.0692 21.7916 12.6223 20.505 11.7918ZM10.4802 26.1259C10.3998 25.858 10.4266 25.5632 10.6143 25.3221C10.7751 25.1078 11.0431 24.9738 11.3112 24.9738C11.3916 24.9738 11.4988 24.9738 11.5792 25.0274C11.7937 25.081 12.0349 25.1078 12.2761 25.1078C12.8122 25.1078 13.3483 24.947 13.7772 24.6255C14.206 24.304 14.5545 23.8485 14.7153 23.3395C14.7957 23.0715 14.8493 22.8304 14.8493 22.5357C14.8493 22.2678 14.7957 21.9998 14.7153 21.7587C14.5545 21.2496 14.2328 20.7941 13.7772 20.4726C13.5895 20.3387 13.3751 20.2047 13.1607 20.1511C12.7854 20.0172 12.571 19.6956 12.571 19.3205C12.571 19.0258 12.705 18.7847 12.9462 18.6239C13.1607 18.4632 13.4287 18.4096 13.6699 18.49C13.6967 18.49 13.7235 18.5168 13.7504 18.5168C13.8576 18.5436 13.938 18.5971 14.0184 18.6239C14.0988 18.6775 14.206 18.7043 14.2864 18.7579C14.3668 18.8115 14.4473 18.8383 14.5277 18.8919C14.5545 18.8919 14.5545 18.9187 14.5813 18.9187C14.6617 18.9722 14.7421 19.0258 14.8225 19.0794C15.5462 19.6153 16.1091 20.3655 16.3772 21.2228C16.5112 21.6515 16.5916 22.0802 16.5916 22.5357C16.5916 22.9912 16.5112 23.4466 16.3772 23.8753C16.1091 24.7327 15.5462 25.4829 14.8225 26.0187C14.0988 26.5546 13.2143 26.8493 12.3029 26.8493C12.1957 26.8493 12.0617 26.8493 11.9545 26.8225C11.9009 26.8225 11.8473 26.8225 11.7937 26.7957C11.74 26.7957 11.6596 26.7689 11.606 26.7689C11.5524 26.7689 11.4988 26.7421 11.472 26.7421C11.4184 26.7421 11.3648 26.7153 11.3112 26.7153C11.2576 26.7153 11.204 26.6885 11.1503 26.6618H11.1236C11.0967 26.6618 11.0967 26.6618 11.0699 26.635C11.0699 26.635 11.0699 26.635 11.0431 26.635C10.7483 26.5814 10.5607 26.3938 10.4802 26.1259ZM10.8555 27.1708H10.8823C10.9091 27.1708 10.9359 27.1708 10.9627 27.1976C11.0163 27.2244 11.0967 27.2244 11.1503 27.2512C11.204 27.278 11.2844 27.278 11.338 27.3048C11.3916 27.3048 11.4452 27.3316 11.4988 27.3316C11.7669 27.3852 12.0349 27.3852 12.3029 27.3852C13.3483 27.3852 14.3132 27.0636 15.1442 26.4474C15.9483 25.858 16.5916 25.0006 16.8864 24.0361C17.0473 23.5538 17.1277 23.0447 17.1277 22.5357C17.1277 22.0266 17.0473 21.5175 16.8864 21.0353C16.5648 20.0707 15.9483 19.2134 15.1442 18.6239C15.0638 18.5703 15.0102 18.5168 14.9297 18.49C14.6617 18.3024 14.3669 18.1684 14.0452 18.0345C14.0184 18.0077 13.9648 18.0077 13.938 17.9809H13.9112C13.6968 17.9005 13.4823 17.8469 13.2411 17.7934C12.839 17.713 12.571 17.3647 12.571 16.936C12.571 16.6681 12.6782 16.4269 12.8926 16.2662C13.0802 16.1322 13.2947 16.0518 13.5091 16.0786C13.5627 16.0786 13.5895 16.1054 13.6431 16.1054C13.7236 16.1054 13.804 16.1322 13.8844 16.159C13.938 16.159 13.9916 16.1858 14.0452 16.1858C14.0988 16.2126 14.1792 16.2126 14.2328 16.2394C14.2864 16.2662 14.3668 16.293 14.4205 16.293C14.5277 16.3197 14.6617 16.3733 14.7689 16.4269C15.0369 16.5341 15.2782 16.6413 15.5194 16.7752C15.573 16.802 15.6266 16.8288 15.6803 16.8556C15.7607 16.9092 15.8679 16.9628 15.9483 17.0164C16.0287 17.0699 16.1091 17.1235 16.1895 17.1771C17.3153 17.9809 18.1462 19.1598 18.5751 20.4726C18.7895 21.1157 18.8967 21.8123 18.8967 22.5089C18.8967 23.2055 18.7895 23.9021 18.5751 24.5451C18.5483 24.5987 18.5215 24.6791 18.5215 24.7327C18.4947 24.7863 18.4679 24.8666 18.4411 24.9202C18.4143 24.9738 18.3875 25.0542 18.3607 25.1078C18.2803 25.3221 18.173 25.5365 18.0658 25.724C18.039 25.7776 17.9854 25.858 17.9586 25.9116C17.905 25.9919 17.8514 26.0991 17.771 26.1795C17.7174 26.2331 17.6906 26.3135 17.6369 26.367C17.5833 26.4474 17.5029 26.5546 17.4225 26.635C17.3689 26.7153 17.2885 26.7957 17.2349 26.8493C17.2081 26.8761 17.1813 26.9297 17.1545 26.9565C17.0741 27.0369 16.9936 27.1172 16.9132 27.1976C16.6988 27.412 16.4308 27.6263 16.1895 27.8138C15.0638 28.6444 13.7236 29.0731 12.3297 29.0731C10.9359 29.0731 9.59571 28.6444 8.46994 27.8138C7.71942 27.2512 7.04932 26.5278 6.59365 25.724C6.45963 25.5097 6.45964 25.2417 6.54006 25.0006C6.64727 24.7595 6.83489 24.5719 7.10293 24.4915C7.18335 24.4648 7.29056 24.438 7.37098 24.438C7.66582 24.438 7.96066 24.5987 8.12149 24.8666C8.46994 25.4829 8.92562 26.0187 9.48851 26.4206C9.89057 26.7957 10.373 27.0369 10.8555 27.1708ZM18.4679 28.9124C18.2803 29.0999 18.039 29.1803 17.771 29.1535C17.5029 29.1267 17.2885 28.9927 17.1277 28.8052C16.8596 28.4569 16.9132 27.9746 17.2349 27.6531C17.2617 27.6263 17.2617 27.6263 17.2885 27.5995C17.3421 27.5459 17.4225 27.4655 17.4761 27.3852C17.5833 27.278 17.6638 27.1708 17.7442 27.0636C17.8246 26.9565 17.9318 26.8493 18.0122 26.7421C18.0658 26.6618 18.1194 26.5814 18.173 26.501C18.2266 26.4474 18.2534 26.367 18.3071 26.2867C18.3339 26.2331 18.3875 26.1795 18.4143 26.0991C18.4411 26.0455 18.4679 26.0187 18.4947 25.9651C18.5215 25.9116 18.5751 25.8312 18.6019 25.7776C18.6287 25.7508 18.6287 25.6972 18.6555 25.6704C18.7091 25.59 18.7359 25.4829 18.7895 25.4025C18.8967 25.1881 18.9772 24.9738 19.0308 24.7595C19.272 24.0629 19.3792 23.3127 19.3792 22.5625C19.3792 21.8123 19.272 21.0621 19.0308 20.3655C18.5751 18.9454 17.6638 17.6862 16.4576 16.802C16.3772 16.7484 16.2968 16.6681 16.1895 16.6145C16.1627 16.5877 16.1359 16.5609 16.0823 16.5609C15.8947 16.4537 15.7071 16.3466 15.5194 16.2394C15.4658 16.2126 15.4122 16.1858 15.3586 16.159C15.1978 16.0786 15.0638 15.9982 14.8761 15.9446C14.8225 15.9179 14.7689 15.8911 14.7153 15.8911C14.6349 15.8643 14.5545 15.8375 14.4741 15.8107C14.4205 15.8107 14.3937 15.7839 14.34 15.7571C14.2328 15.7303 14.0988 15.6767 13.9648 15.6499C13.8844 15.6231 13.804 15.5963 13.7236 15.5963H13.6967C13.6699 15.5963 13.67 15.5963 13.6431 15.5963C13.6163 15.5963 13.5895 15.5963 13.5895 15.5963C13.4823 15.5696 13.3751 15.5696 13.2679 15.5428C12.839 15.4892 12.5174 15.1141 12.5174 14.6854C12.5174 14.4443 12.6246 14.2031 12.8122 14.0424C12.973 13.9084 13.1875 13.828 13.4019 13.828C13.4555 13.828 13.4823 13.828 13.5359 13.828C14.9565 14.0424 16.2968 14.5782 17.4761 15.4356C18.9772 16.5341 20.1297 18.1149 20.6926 19.8564C20.9875 20.7406 21.1215 21.6515 21.1215 22.5893C21.1215 23.527 20.9875 24.438 20.6926 25.3221C20.2906 26.6618 19.5132 27.8942 18.4679 28.9124ZM20.505 11.7918C19.7813 11.3095 18.8967 11.0416 17.9586 11.0416H7.23696C6.29881 11.0416 5.41428 11.3095 4.69056 11.7918C3.40397 12.6223 2.54624 14.096 2.54624 15.7303V29.1267C2.54624 30.7878 3.40397 32.2347 4.69056 33.0652C5.41428 33.5475 6.29881 33.8154 7.23696 33.8154H17.9586C18.8967 33.8154 19.7813 33.5475 20.505 33.0652C21.7916 32.2347 22.6493 30.7878 22.6493 29.1267V15.7303C22.6493 14.0692 21.7916 12.6223 20.505 11.7918ZM10.4802 26.1259C10.3998 25.858 10.4266 25.5632 10.6143 25.3221C10.7751 25.1078 11.0431 24.9738 11.3112 24.9738C11.3916 24.9738 11.4988 24.9738 11.5792 25.0274C11.7937 25.081 12.0349 25.1078 12.2761 25.1078C12.8122 25.1078 13.3483 24.947 13.7772 24.6255C14.206 24.304 14.5545 23.8485 14.7153 23.3395C14.7957 23.0715 14.8493 22.8304 14.8493 22.5357C14.8493 22.2678 14.7957 21.9998 14.7153 21.7587C14.5545 21.2496 14.2328 20.7941 13.7772 20.4726C13.5895 20.3387 13.3751 20.2047 13.1607 20.1511C12.7854 20.0172 12.571 19.6956 12.571 19.3205C12.571 19.0258 12.705 18.7847 12.9462 18.6239C13.1607 18.4632 13.4287 18.4096 13.6699 18.49C13.6967 18.49 13.7235 18.5168 13.7504 18.5168C13.8576 18.5436 13.938 18.5971 14.0184 18.6239C14.0988 18.6775 14.206 18.7043 14.2864 18.7579C14.3668 18.8115 14.4473 18.8383 14.5277 18.8919C14.5545 18.8919 14.5545 18.9187 14.5813 18.9187C14.6617 18.9722 14.7421 19.0258 14.8225 19.0794C15.5462 19.6153 16.1091 20.3655 16.3772 21.2228C16.5112 21.6515 16.5916 22.0802 16.5916 22.5357C16.5916 22.9912 16.5112 23.4466 16.3772 23.8753C16.1091 24.7327 15.5462 25.4829 14.8225 26.0187C14.0988 26.5546 13.2143 26.8493 12.3029 26.8493C12.1957 26.8493 12.0617 26.8493 11.9545 26.8225C11.9009 26.8225 11.8473 26.8225 11.7937 26.7957C11.74 26.7957 11.6596 26.7689 11.606 26.7689C11.5524 26.7689 11.4988 26.7421 11.472 26.7421C11.4184 26.7421 11.3648 26.7153 11.3112 26.7153C11.2576 26.7153 11.204 26.6885 11.1503 26.6618H11.1236C11.0967 26.6618 11.0967 26.6618 11.0699 26.635C11.0699 26.635 11.0699 26.635 11.0431 26.635C10.7483 26.5814 10.5607 26.3938 10.4802 26.1259ZM10.8555 27.1708H10.8823C10.9091 27.1708 10.9359 27.1708 10.9627 27.1976C11.0163 27.2244 11.0967 27.2244 11.1503 27.2512C11.204 27.278 11.2844 27.278 11.338 27.3048C11.3916 27.3048 11.4452 27.3316 11.4988 27.3316C11.7669 27.3852 12.0349 27.3852 12.3029 27.3852C13.3483 27.3852 14.3132 27.0636 15.1442 26.4474C15.9483 25.858 16.5916 25.0006 16.8864 24.0361C17.0473 23.5538 17.1277 23.0447 17.1277 22.5357C17.1277 22.0266 17.0473 21.5175 16.8864 21.0353C16.5648 20.0707 15.9483 19.2134 15.1442 18.6239C15.0638 18.5703 15.0102 18.5168 14.9297 18.49C14.6617 18.3024 14.3669 18.1684 14.0452 18.0345C14.0184 18.0077 13.9648 18.0077 13.938 17.9809H13.9112C13.6968 17.9005 13.4823 17.8469 13.2411 17.7934C12.839 17.713 12.571 17.3647 12.571 16.936C12.571 16.6681 12.6782 16.4269 12.8926 16.2662C13.0802 16.1322 13.2947 16.0518 13.5091 16.0786C13.5627 16.0786 13.5895 16.1054 13.6431 16.1054C13.7236 16.1054 13.804 16.1322 13.8844 16.159C13.938 16.159 13.9916 16.1858 14.0452 16.1858C14.0988 16.2126 14.1792 16.2126 14.2328 16.2394C14.2864 16.2662 14.3668 16.293 14.4205 16.293C14.5277 16.3197 14.6617 16.3733 14.7689 16.4269C15.0369 16.5341 15.2782 16.6413 15.5194 16.7752C15.573 16.802 15.6266 16.8288 15.6803 16.8556C15.7607 16.9092 15.8679 16.9628 15.9483 17.0164C16.0287 17.0699 16.1091 17.1235 16.1895 17.1771C17.3153 17.9809 18.1462 19.1598 18.5751 20.4726C18.7895 21.1157 18.8967 21.8123 18.8967 22.5089C18.8967 23.2055 18.7895 23.9021 18.5751 24.5451C18.5483 24.5987 18.5215 24.6791 18.5215 24.7327C18.4947 24.7863 18.4679 24.8666 18.4411 24.9202C18.4143 24.9738 18.3875 25.0542 18.3607 25.1078C18.2803 25.3221 18.173 25.5365 18.0658 25.724C18.039 25.7776 17.9854 25.858 17.9586 25.9116C17.905 25.9919 17.8514 26.0991 17.771 26.1795C17.7174 26.2331 17.6906 26.3135 17.6369 26.367C17.5833 26.4474 17.5029 26.5546 17.4225 26.635C17.3689 26.7153 17.2885 26.7957 17.2349 26.8493C17.2081 26.8761 17.1813 26.9297 17.1545 26.9565C17.0741 27.0369 16.9936 27.1172 16.9132 27.1976C16.6988 27.412 16.4308 27.6263 16.1895 27.8138C15.0638 28.6444 13.7236 29.0731 12.3297 29.0731C10.9359 29.0731 9.59571 28.6444 8.46994 27.8138C7.71942 27.2512 7.04932 26.5278 6.59365 25.724C6.45963 25.5097 6.45964 25.2417 6.54006 25.0006C6.64727 24.7595 6.83489 24.5719 7.10293 24.4915C7.18335 24.4648 7.29056 24.438 7.37098 24.438C7.66582 24.438 7.96066 24.5987 8.12149 24.8666C8.46994 25.4829 8.92562 26.0187 9.48851 26.4206C9.89057 26.7957 10.373 27.0369 10.8555 27.1708ZM18.4679 28.9124C18.2803 29.0999 18.039 29.1803 17.771 29.1535C17.5029 29.1267 17.2885 28.9927 17.1277 28.8052C16.8596 28.4569 16.9132 27.9746 17.2349 27.6531C17.2617 27.6263 17.2617 27.6263 17.2885 27.5995C17.3421 27.5459 17.4225 27.4655 17.4761 27.3852C17.5833 27.278 17.6638 27.1708 17.7442 27.0636C17.8246 26.9565 17.9318 26.8493 18.0122 26.7421C18.0658 26.6618 18.1194 26.5814 18.173 26.501C18.2266 26.4474 18.2534 26.367 18.3071 26.2867C18.3339 26.2331 18.3875 26.1795 18.4143 26.0991C18.4411 26.0455 18.4679 26.0187 18.4947 25.9651C18.5215 25.9116 18.5751 25.8312 18.6019 25.7776C18.6287 25.7508 18.6287 25.6972 18.6555 25.6704C18.7091 25.59 18.7359 25.4829 18.7895 25.4025C18.8967 25.1881 18.9772 24.9738 19.0308 24.7595C19.272 24.0629 19.3792 23.3127 19.3792 22.5625C19.3792 21.8123 19.272 21.0621 19.0308 20.3655C18.5751 18.9454 17.6638 17.6862 16.4576 16.802C16.3772 16.7484 16.2968 16.6681 16.1895 16.6145C16.1627 16.5877 16.1359 16.5609 16.0823 16.5609C15.8947 16.4537 15.7071 16.3466 15.5194 16.2394C15.4658 16.2126 15.4122 16.1858 15.3586 16.159C15.1978 16.0786 15.0638 15.9982 14.8761 15.9446C14.8225 15.9179 14.7689 15.8911 14.7153 15.8911C14.6349 15.8643 14.5545 15.8375 14.4741 15.8107C14.4205 15.8107 14.3937 15.7839 14.34 15.7571C14.2328 15.7303 14.0988 15.6767 13.9648 15.6499C13.8844 15.6231 13.804 15.5963 13.7236 15.5963H13.6967C13.6699 15.5963 13.67 15.5963 13.6431 15.5963C13.6163 15.5963 13.5895 15.5963 13.5895 15.5963C13.4823 15.5696 13.3751 15.5696 13.2679 15.5428C12.839 15.4892 12.5174 15.1141 12.5174 14.6854C12.5174 14.4443 12.6246 14.2031 12.8122 14.0424C12.973 13.9084 13.1875 13.828 13.4019 13.828C13.4555 13.828 13.4823 13.828 13.5359 13.828C14.9565 14.0424 16.2968 14.5782 17.4761 15.4356C18.9772 16.5341 20.1297 18.1149 20.6926 19.8564C20.9875 20.7406 21.1215 21.6515 21.1215 22.5893C21.1215 23.527 20.9875 24.438 20.6926 25.3221C20.2906 26.6618 19.5132 27.8942 18.4679 28.9124ZM20.505 11.7918C19.7813 11.3095 18.8967 11.0416 17.9586 11.0416H7.23696C6.29881 11.0416 5.41428 11.3095 4.69056 11.7918C3.40397 12.6223 2.54624 14.096 2.54624 15.7303V29.1267C2.54624 30.7878 3.40397 32.2347 4.69056 33.0652C5.41428 33.5475 6.29881 33.8154 7.23696 33.8154H17.9586C18.8967 33.8154 19.7813 33.5475 20.505 33.0652C21.7916 32.2347 22.6493 30.7878 22.6493 29.1267V15.7303C22.6493 14.0692 21.7916 12.6223 20.505 11.7918ZM10.4802 26.1259C10.3998 25.858 10.4266 25.5632 10.6143 25.3221C10.7751 25.1078 11.0431 24.9738 11.3112 24.9738C11.3916 24.9738 11.4988 24.9738 11.5792 25.0274C11.7937 25.081 12.0349 25.1078 12.2761 25.1078C12.8122 25.1078 13.3483 24.947 13.7772 24.6255C14.206 24.304 14.5545 23.8485 14.7153 23.3395C14.7957 23.0715 14.8493 22.8304 14.8493 22.5357C14.8493 22.2678 14.7957 21.9998 14.7153 21.7587C14.5545 21.2496 14.2328 20.7941 13.7772 20.4726C13.5895 20.3387 13.3751 20.2047 13.1607 20.1511C12.7854 20.0172 12.571 19.6956 12.571 19.3205C12.571 19.0258 12.705 18.7847 12.9462 18.6239C13.1607 18.4632 13.4287 18.4096 13.6699 18.49C13.6967 18.49 13.7235 18.5168 13.7504 18.5168C13.8576 18.5436 13.938 18.5971 14.0184 18.6239C14.0988 18.6775 14.206 18.7043 14.2864 18.7579C14.3668 18.8115 14.4473 18.8383 14.5277 18.8919C14.5545 18.8919 14.5545 18.9187 14.5813 18.9187C14.6617 18.9722 14.7421 19.0258 14.8225 19.0794C15.5462 19.6153 16.1091 20.3655 16.3772 21.2228C16.5112 21.6515 16.5916 22.0802 16.5916 22.5357C16.5916 22.9912 16.5112 23.4466 16.3772 23.8753C16.1091 24.7327 15.5462 25.4829 14.8225 26.0187C14.0988 26.5546 13.2143 26.8493 12.3029 26.8493C12.1957 26.8493 12.0617 26.8493 11.9545 26.8225C11.9009 26.8225 11.8473 26.8225 11.7937 26.7957C11.74 26.7957 11.6596 26.7689 11.606 26.7689C11.5524 26.7689 11.4988 26.7421 11.472 26.7421C11.4184 26.7421 11.3648 26.7153 11.3112 26.7153C11.2576 26.7153 11.204 26.6885 11.1503 26.6618H11.1236C11.0967 26.6618 11.0967 26.6618 11.0699 26.635C11.0699 26.635 11.0699 26.635 11.0431 26.635C10.7483 26.5814 10.5607 26.3938 10.4802 26.1259ZM10.8555 27.1708H10.8823C10.9091 27.1708 10.9359 27.1708 10.9627 27.1976C11.0163 27.2244 11.0967 27.2244 11.1503 27.2512C11.204 27.278 11.2844 27.278 11.338 27.3048C11.3916 27.3048 11.4452 27.3316 11.4988 27.3316C11.7669 27.3852 12.0349 27.3852 12.3029 27.3852C13.3483 27.3852 14.3132 27.0636 15.1442 26.4474C15.9483 25.858 16.5916 25.0006 16.8864 24.0361C17.0473 23.5538 17.1277 23.0447 17.1277 22.5357C17.1277 22.0266 17.0473 21.5175 16.8864 21.0353C16.5648 20.0707 15.9483 19.2134 15.1442 18.6239C15.0638 18.5703 15.0102 18.5168 14.9297 18.49C14.6617 18.3024 14.3669 18.1684 14.0452 18.0345C14.0184 18.0077 13.9648 18.0077 13.938 17.9809H13.9112C13.6968 17.9005 13.4823 17.8469 13.2411 17.7934C12.839 17.713 12.571 17.3647 12.571 16.936C12.571 16.6681 12.6782 16.4269 12.8926 16.2662C13.0802 16.1322 13.2947 16.0518 13.5091 16.0786C13.5627 16.0786 13.5895 16.1054 13.6431 16.1054C13.7236 16.1054 13.804 16.1322 13.8844 16.159C13.938 16.159 13.9916 16.1858 14.0452 16.1858C14.0988 16.2126 14.1792 16.2126 14.2328 16.2394C14.2864 16.2662 14.3668 16.293 14.4205 16.293C14.5277 16.3197 14.6617 16.3733 14.7689 16.4269C15.0369 16.5341 15.2782 16.6413 15.5194 16.7752C15.573 16.802 15.6266 16.8288 15.6803 16.8556C15.7607 16.9092 15.8679 16.9628 15.9483 17.0164C16.0287 17.0699 16.1091 17.1235 16.1895 17.1771C17.3153 17.9809 18.1462 19.1598 18.5751 20.4726C18.7895 21.1157 18.8967 21.8123 18.8967 22.5089C18.8967 23.2055 18.7895 23.9021 18.5751 24.5451C18.5483 24.5987 18.5215 24.6791 18.5215 24.7327C18.4947 24.7863 18.4679 24.8666 18.4411 24.9202C18.4143 24.9738 18.3875 25.0542 18.3607 25.1078C18.2803 25.3221 18.173 25.5365 18.0658 25.724C18.039 25.7776 17.9854 25.858 17.9586 25.9116C17.905 25.9919 17.8514 26.0991 17.771 26.1795C17.7174 26.2331 17.6906 26.3135 17.6369 26.367C17.5833 26.4474 17.5029 26.5546 17.4225 26.635C17.3689 26.7153 17.2885 26.7957 17.2349 26.8493C17.2081 26.8761 17.1813 26.9297 17.1545 26.9565C17.0741 27.0369 16.9936 27.1172 16.9132 27.1976C16.6988 27.412 16.4308 27.6263 16.1895 27.8138C15.0638 28.6444 13.7236 29.0731 12.3297 29.0731C10.9359 29.0731 9.59571 28.6444 8.46994 27.8138C7.71942 27.2512 7.04932 26.5278 6.59365 25.724C6.45963 25.5097 6.45964 25.2417 6.54006 25.0006C6.64727 24.7595 6.83489 24.5719 7.10293 24.4915C7.18335 24.4648 7.29056 24.438 7.37098 24.438C7.66582 24.438 7.96066 24.5987 8.12149 24.8666C8.46994 25.4829 8.92562 26.0187 9.48851 26.4206C9.89057 26.7957 10.373 27.0369 10.8555 27.1708ZM18.4679 28.9124C18.2803 29.0999 18.039 29.1803 17.771 29.1535C17.5029 29.1267 17.2885 28.9927 17.1277 28.8052C16.8596 28.4569 16.9132 27.9746 17.2349 27.6531C17.2617 27.6263 17.2617 27.6263 17.2885 27.5995C17.3421 27.5459 17.4225 27.4655 17.4761 27.3852C17.5833 27.278 17.6638 27.1708 17.7442 27.0636C17.8246 26.9565 17.9318 26.8493 18.0122 26.7421C18.0658 26.6618 18.1194 26.5814 18.173 26.501C18.2266 26.4474 18.2534 26.367 18.3071 26.2867C18.3339 26.2331 18.3875 26.1795 18.4143 26.0991C18.4411 26.0455 18.4679 26.0187 18.4947 25.9651C18.5215 25.9116 18.5751 25.8312 18.6019 25.7776C18.6287 25.7508 18.6287 25.6972 18.6555 25.6704C18.7091 25.59 18.7359 25.4829 18.7895 25.4025C18.8967 25.1881 18.9772 24.9738 19.0308 24.7595C19.272 24.0629 19.3792 23.3127 19.3792 22.5625C19.3792 21.8123 19.272 21.0621 19.0308 20.3655C18.5751 18.9454 17.6638 17.6862 16.4576 16.802C16.3772 16.7484 16.2968 16.6681 16.1895 16.6145C16.1627 16.5877 16.1359 16.5609 16.0823 16.5609C15.8947 16.4537 15.7071 16.3466 15.5194 16.2394C15.4658 16.2126 15.4122 16.1858 15.3586 16.159C15.1978 16.0786 15.0638 15.9982 14.8761 15.9446C14.8225 15.9179 14.7689 15.8911 14.7153 15.8911C14.6349 15.8643 14.5545 15.8375 14.4741 15.8107C14.4205 15.8107 14.3937 15.7839 14.34 15.7571C14.2328 15.7303 14.0988 15.6767 13.9648 15.6499C13.8844 15.6231 13.804 15.5963 13.7236 15.5963H13.6967C13.6699 15.5963 13.67 15.5963 13.6431 15.5963C13.6163 15.5963 13.5895 15.5963 13.5895 15.5963C13.4823 15.5696 13.3751 15.5696 13.2679 15.5428C12.839 15.4892 12.5174 15.1141 12.5174 14.6854C12.5174 14.4443 12.6246 14.2031 12.8122 14.0424C12.973 13.9084 13.1875 13.828 13.4019 13.828C13.4555 13.828 13.4823 13.828 13.5359 13.828C14.9565 14.0424 16.2968 14.5782 17.4761 15.4356C18.9772 16.5341 20.1297 18.1149 20.6926 19.8564C20.9875 20.7406 21.1215 21.6515 21.1215 22.5893C21.1215 23.527 20.9875 24.438 20.6926 25.3221C20.2906 26.6618 19.5132 27.8942 18.4679 28.9124ZM20.505 11.7918C19.7813 11.3095 18.8967 11.0416 17.9586 11.0416H7.23696C6.29881 11.0416 5.41428 11.3095 4.69056 11.7918C3.40397 12.6223 2.54624 14.096 2.54624 15.7303V29.1267C2.54624 30.7878 3.40397 32.2347 4.69056 33.0652C5.41428 33.5475 6.29881 33.8154 7.23696 33.8154H17.9586C18.8967 33.8154 19.7813 33.5475 20.505 33.0652C21.7916 32.2347 22.6493 30.7878 22.6493 29.1267V15.7303C22.6493 14.0692 21.7916 12.6223 20.505 11.7918ZM10.4802 26.1259C10.3998 25.858 10.4266 25.5632 10.6143 25.3221C10.7751 25.1078 11.0431 24.9738 11.3112 24.9738C11.3916 24.9738 11.4988 24.9738 11.5792 25.0274C11.7937 25.081 12.0349 25.1078 12.2761 25.1078C12.8122 25.1078 13.3483 24.947 13.7772 24.6255C14.206 24.304 14.5545 23.8485 14.7153 23.3395C14.7957 23.0715 14.8493 22.8304 14.8493 22.5357C14.8493 22.2678 14.7957 21.9998 14.7153 21.7587C14.5545 21.2496 14.2328 20.7941 13.7772 20.4726C13.5895 20.3387 13.3751 20.2047 13.1607 20.1511C12.7854 20.0172 12.571 19.6956 12.571 19.3205C12.571 19.0258 12.705 18.7847 12.9462 18.6239C13.1607 18.4632 13.4287 18.4096 13.6699 18.49C13.6967 18.49 13.7235 18.5168 13.7504 18.5168C13.8576 18.5436 13.938 18.5971 14.0184 18.6239C14.0988 18.6775 14.206 18.7043 14.2864 18.7579C14.3668 18.8115 14.4473 18.8383 14.5277 18.8919C14.5545 18.8919 14.5545 18.9187 14.5813 18.9187C14.6617 18.9722 14.7421 19.0258 14.8225 19.0794C15.5462 19.6153 16.1091 20.3655 16.3772 21.2228C16.5112 21.6515 16.5916 22.0802 16.5916 22.5357C16.5916 22.9912 16.5112 23.4466 16.3772 23.8753C16.1091 24.7327 15.5462 25.4829 14.8225 26.0187C14.0988 26.5546 13.2143 26.8493 12.3029 26.8493C12.1957 26.8493 12.0617 26.8493 11.9545 26.8225C11.9009 26.8225 11.8473 26.8225 11.7937 26.7957C11.74 26.7957 11.6596 26.7689 11.606 26.7689C11.5524 26.7689 11.4988 26.7421 11.472 26.7421C11.4184 26.7421 11.3648 26.7153 11.3112 26.7153C11.2576 26.7153 11.204 26.6885 11.1503 26.6618H11.1236C11.0967 26.6618 11.0967 26.6618 11.0699 26.635C11.0699 26.635 11.0699 26.635 11.0431 26.635C10.7483 26.5814 10.5607 26.3938 10.4802 26.1259ZM10.8555 27.1708H10.8823C10.9091 27.1708 10.9359 27.1708 10.9627 27.1976C11.0163 27.2244 11.0967 27.2244 11.1503 27.2512C11.204 27.278 11.2844 27.278 11.338 27.3048C11.3916 27.3048 11.4452 27.3316 11.4988 27.3316C11.7669 27.3852 12.0349 27.3852 12.3029 27.3852C13.3483 27.3852 14.3132 27.0636 15.1442 26.4474C15.9483 25.858 16.5916 25.0006 16.8864 24.0361C17.0473 23.5538 17.1277 23.0447 17.1277 22.5357C17.1277 22.0266 17.0473 21.5175 16.8864 21.0353C16.5648 20.0707 15.9483 19.2134 15.1442 18.6239C15.0638 18.5703 15.0102 18.5168 14.9297 18.49C14.6617 18.3024 14.3669 18.1684 14.0452 18.0345C14.0184 18.0077 13.9648 18.0077 13.938 17.9809H13.9112C13.6968 17.9005 13.4823 17.8469 13.2411 17.7934C12.839 17.713 12.571 17.3647 12.571 16.936C12.571 16.6681 12.6782 16.4269 12.8926 16.2662C13.0802 16.1322 13.2947 16.0518 13.5091 16.0786C13.5627 16.0786 13.5895 16.1054 13.6431 16.1054C13.7236 16.1054 13.804 16.1322 13.8844 16.159C13.938 16.159 13.9916 16.1858 14.0452 16.1858C14.0988 16.2126 14.1792 16.2126 14.2328 16.2394C14.2864 16.2662 14.3668 16.293 14.4205 16.293C14.5277 16.3197 14.6617 16.3733 14.7689 16.4269C15.0369 16.5341 15.2782 16.6413 15.5194 16.7752C15.573 16.802 15.6266 16.8288 15.6803 16.8556C15.7607 16.9092 15.8679 16.9628 15.9483 17.0164C16.0287 17.0699 16.1091 17.1235 16.1895 17.1771C17.3153 17.9809 18.1462 19.1598 18.5751 20.4726C18.7895 21.1157 18.8967 21.8123 18.8967 22.5089C18.8967 23.2055 18.7895 23.9021 18.5751 24.5451C18.5483 24.5987 18.5215 24.6791 18.5215 24.7327C18.4947 24.7863 18.4679 24.8666 18.4411 24.9202C18.4143 24.9738 18.3875 25.0542 18.3607 25.1078C18.2803 25.3221 18.173 25.5365 18.0658 25.724C18.039 25.7776 17.9854 25.858 17.9586 25.9116C17.905 25.9919 17.8514 26.0991 17.771 26.1795C17.7174 26.2331 17.6906 26.3135 17.6369 26.367C17.5833 26.4474 17.5029 26.5546 17.4225 26.635C17.3689 26.7153 17.2885 26.7957 17.2349 26.8493C17.2081 26.8761 17.1813 26.9297 17.1545 26.9565C17.0741 27.0369 16.9936 27.1172 16.9132 27.1976C16.6988 27.412 16.4308 27.6263 16.1895 27.8138C15.0638 28.6444 13.7236 29.0731 12.3297 29.0731C10.9359 29.0731 9.59571 28.6444 8.46994 27.8138C7.71942 27.2512 7.04932 26.5278 6.59365 25.724C6.45963 25.5097 6.45964 25.2417 6.54006 25.0006C6.64727 24.7595 6.83489 24.5719 7.10293 24.4915C7.18335 24.4648 7.29056 24.438 7.37098 24.438C7.66582 24.438 7.96066 24.5987 8.12149 24.8666C8.46994 25.4829 8.92562 26.0187 9.48851 26.4206C9.89057 26.7957 10.373 27.0369 10.8555 27.1708ZM18.4679 28.9124C18.2803 29.0999 18.039 29.1803 17.771 29.1535C17.5029 29.1267 17.2885 28.9927 17.1277 28.8052C16.8596 28.4569 16.9132 27.9746 17.2349 27.6531C17.2617 27.6263 17.2617 27.6263 17.2885 27.5995C17.3421 27.5459 17.4225 27.4655 17.4761 27.3852C17.5833 27.278 17.6638 27.1708 17.7442 27.0636C17.8246 26.9565 17.9318 26.8493 18.0122 26.7421C18.0658 26.6618 18.1194 26.5814 18.173 26.501C18.2266 26.4474 18.2534 26.367 18.3071 26.2867C18.3339 26.2331 18.3875 26.1795 18.4143 26.0991C18.4411 26.0455 18.4679 26.0187 18.4947 25.9651C18.5215 25.9116 18.5751 25.8312 18.6019 25.7776C18.6287 25.7508 18.6287 25.6972 18.6555 25.6704C18.7091 25.59 18.7359 25.4829 18.7895 25.4025C18.8967 25.1881 18.9772 24.9738 19.0308 24.7595C19.272 24.0629 19.3792 23.3127 19.3792 22.5625C19.3792 21.8123 19.272 21.0621 19.0308 20.3655C18.5751 18.9454 17.6638 17.6862 16.4576 16.802C16.3772 16.7484 16.2968 16.6681 16.1895 16.6145C16.1627 16.5877 16.1359 16.5609 16.0823 16.5609C15.8947 16.4537 15.7071 16.3466 15.5194 16.2394C15.4658 16.2126 15.4122 16.1858 15.3586 16.159C15.1978 16.0786 15.0638 15.9982 14.8761 15.9446C14.8225 15.9179 14.7689 15.8911 14.7153 15.8911C14.6349 15.8643 14.5545 15.8375 14.4741 15.8107C14.4205 15.8107 14.3937 15.7839 14.34 15.7571C14.2328 15.7303 14.0988 15.6767 13.9648 15.6499C13.8844 15.6231 13.804 15.5963 13.7236 15.5963H13.6967C13.6699 15.5963 13.67 15.5963 13.6431 15.5963C13.6163 15.5963 13.5895 15.5963 13.5895 15.5963C13.4823 15.5696 13.3751 15.5696 13.2679 15.5428C12.839 15.4892 12.5174 15.1141 12.5174 14.6854C12.5174 14.4443 12.6246 14.2031 12.8122 14.0424C12.973 13.9084 13.1875 13.828 13.4019 13.828C13.4555 13.828 13.4823 13.828 13.5359 13.828C14.9565 14.0424 16.2968 14.5782 17.4761 15.4356C18.9772 16.5341 20.1297 18.1149 20.6926 19.8564C20.9875 20.7406 21.1215 21.6515 21.1215 22.5893C21.1215 23.527 20.9875 24.438 20.6926 25.3221C20.2906 26.6618 19.5132 27.8942 18.4679 28.9124ZM20.505 11.7918C19.7813 11.3095 18.8967 11.0416 17.9586 11.0416H7.23696C6.29881 11.0416 5.41428 11.3095 4.69056 11.7918C3.40397 12.6223 2.54624 14.096 2.54624 15.7303V29.1267C2.54624 30.7878 3.40397 32.2347 4.69056 33.0652C5.41428 33.5475 6.29881 33.8154 7.23696 33.8154H17.9586C18.8967 33.8154 19.7813 33.5475 20.505 33.0652C21.7916 32.2347 22.6493 30.7878 22.6493 29.1267V15.7303C22.6493 14.0692 21.7916 12.6223 20.505 11.7918ZM10.4802 26.1259C10.3998 25.858 10.4266 25.5632 10.6143 25.3221C10.7751 25.1078 11.0431 24.9738 11.3112 24.9738C11.3916 24.9738 11.4988 24.9738 11.5792 25.0274C11.7937 25.081 12.0349 25.1078 12.2761 25.1078C12.8122 25.1078 13.3483 24.947 13.7772 24.6255C14.206 24.304 14.5545 23.8485 14.7153 23.3395C14.7957 23.0715 14.8493 22.8304 14.8493 22.5357C14.8493 22.2678 14.7957 21.9998 14.7153 21.7587C14.5545 21.2496 14.2328 20.7941 13.7772 20.4726C13.5895 20.3387 13.3751 20.2047 13.1607 20.1511C12.7854 20.0172 12.571 19.6956 12.571 19.3205C12.571 19.0258 12.705 18.7847 12.9462 18.6239C13.1607 18.4632 13.4287 18.4096 13.6699 18.49C13.6967 18.49 13.7235 18.5168 13.7504 18.5168C13.8576 18.5436 13.938 18.5971 14.0184 18.6239C14.0988 18.6775 14.206 18.7043 14.2864 18.7579C14.3668 18.8115 14.4473 18.8383 14.5277 18.8919C14.5545 18.8919 14.5545 18.9187 14.5813 18.9187C14.6617 18.9722 14.7421 19.0258 14.8225 19.0794C15.5462 19.6153 16.1091 20.3655 16.3772 21.2228C16.5112 21.6515 16.5916 22.0802 16.5916 22.5357C16.5916 22.9912 16.5112 23.4466 16.3772 23.8753C16.1091 24.7327 15.5462 25.4829 14.8225 26.0187C14.0988 26.5546 13.2143 26.8493 12.3029 26.8493C12.1957 26.8493 12.0617 26.8493 11.9545 26.8225C11.9009 26.8225 11.8473 26.8225 11.7937 26.7957C11.74 26.7957 11.6596 26.7689 11.606 26.7689C11.5524 26.7689 11.4988 26.7421 11.472 26.7421C11.4184 26.7421 11.3648 26.7153 11.3112 26.7153C11.2576 26.7153 11.204 26.6885 11.1503 26.6618H11.1236C11.0967 26.6618 11.0967 26.6618 11.0699 26.635C11.0699 26.635 11.0699 26.635 11.0431 26.635C10.7483 26.5814 10.5607 26.3938 10.4802 26.1259ZM10.8555 27.1708H10.8823C10.9091 27.1708 10.9359 27.1708 10.9627 27.1976C11.0163 27.2244 11.0967 27.2244 11.1503 27.2512C11.204 27.278 11.2844 27.278 11.338 27.3048C11.3916 27.3048 11.4452 27.3316 11.4988 27.3316C11.7669 27.3852 12.0349 27.3852 12.3029 27.3852C13.3483 27.3852 14.3132 27.0636 15.1442 26.4474C15.9483 25.858 16.5916 25.0006 16.8864 24.0361C17.0473 23.5538 17.1277 23.0447 17.1277 22.5357C17.1277 22.0266 17.0473 21.5175 16.8864 21.0353C16.5648 20.0707 15.9483 19.2134 15.1442 18.6239C15.0638 18.5703 15.0102 18.5168 14.9297 18.49C14.6617 18.3024 14.3669 18.1684 14.0452 18.0345C14.0184 18.0077 13.9648 18.0077 13.938 17.9809H13.9112C13.6968 17.9005 13.4823 17.8469 13.2411 17.7934C12.839 17.713 12.571 17.3647 12.571 16.936C12.571 16.6681 12.6782 16.4269 12.8926 16.2662C13.0802 16.1322 13.2947 16.0518 13.5091 16.0786C13.5627 16.0786 13.5895 16.1054 13.6431 16.1054C13.7236 16.1054 13.804 16.1322 13.8844 16.159C13.938 16.159 13.9916 16.1858 14.0452 16.1858C14.0988 16.2126 14.1792 16.2126 14.2328 16.2394C14.2864 16.2662 14.3668 16.293 14.4205 16.293C14.5277 16.3197 14.6617 16.3733 14.7689 16.4269C15.0369 16.5341 15.2782 16.6413 15.5194 16.7752C15.573 16.802 15.6266 16.8288 15.6803 16.8556C15.7607 16.9092 15.8679 16.9628 15.9483 17.0164C16.0287 17.0699 16.1091 17.1235 16.1895 17.1771C17.3153 17.9809 18.1462 19.1598 18.5751 20.4726C18.7895 21.1157 18.8967 21.8123 18.8967 22.5089C18.8967 23.2055 18.7895 23.9021 18.5751 24.5451C18.5483 24.5987 18.5215 24.6791 18.5215 24.7327C18.4947 24.7863 18.4679 24.8666 18.4411 24.9202C18.4143 24.9738 18.3875 25.0542 18.3607 25.1078C18.2803 25.3221 18.173 25.5365 18.0658 25.724C18.039 25.7776 17.9854 25.858 17.9586 25.9116C17.905 25.9919 17.8514 26.0991 17.771 26.1795C17.7174 26.2331 17.6906 26.3135 17.6369 26.367C17.5833 26.4474 17.5029 26.5546 17.4225 26.635C17.3689 26.7153 17.2885 26.7957 17.2349 26.8493C17.2081 26.8761 17.1813 26.9297 17.1545 26.9565C17.0741 27.0369 16.9936 27.1172 16.9132 27.1976C16.6988 27.412 16.4308 27.6263 16.1895 27.8138C15.0638 28.6444 13.7236 29.0731 12.3297 29.0731C10.9359 29.0731 9.59571 28.6444 8.46994 27.8138C7.71942 27.2512 7.04932 26.5278 6.59365 25.724C6.45963 25.5097 6.45964 25.2417 6.54006 25.0006C6.64727 24.7595 6.83489 24.5719 7.10293 24.4915C7.18335 24.4648 7.29056 24.438 7.37098 24.438C7.66582 24.438 7.96066 24.5987 8.12149 24.8666C8.46994 25.4829 8.92562 26.0187 9.48851 26.4206C9.89057 26.7957 10.373 27.0369 10.8555 27.1708ZM18.4679 28.9124C18.2803 29.0999 18.039 29.1803 17.771 29.1535C17.5029 29.1267 17.2885 28.9927 17.1277 28.8052C16.8596 28.4569 16.9132 27.9746 17.2349 27.6531C17.2617 27.6263 17.2617 27.6263 17.2885 27.5995C17.3421 27.5459 17.4225 27.4655 17.4761 27.3852C17.5833 27.278 17.6638 27.1708 17.7442 27.0636C17.8246 26.9565 17.9318 26.8493 18.0122 26.7421C18.0658 26.6618 18.1194 26.5814 18.173 26.501C18.2266 26.4474 18.2534 26.367 18.3071 26.2867C18.3339 26.2331 18.3875 26.1795 18.4143 26.0991C18.4411 26.0455 18.4679 26.0187 18.4947 25.9651C18.5215 25.9116 18.5751 25.8312 18.6019 25.7776C18.6287 25.7508 18.6287 25.6972 18.6555 25.6704C18.7091 25.59 18.7359 25.4829 18.7895 25.4025C18.8967 25.1881 18.9772 24.9738 19.0308 24.7595C19.272 24.0629 19.3792 23.3127 19.3792 22.5625C19.3792 21.8123 19.272 21.0621 19.0308 20.3655C18.5751 18.9454 17.6638 17.6862 16.4576 16.802C16.3772 16.7484 16.2968 16.6681 16.1895 16.6145C16.1627 16.5877 16.1359 16.5609 16.0823 16.5609C15.8947 16.4537 15.7071 16.3466 15.5194 16.2394C15.4658 16.2126 15.4122 16.1858 15.3586 16.159C15.1978 16.0786 15.0638 15.9982 14.8761 15.9446C14.8225 15.9179 14.7689 15.8911 14.7153 15.8911C14.6349 15.8643 14.5545 15.8375 14.4741 15.8107C14.4205 15.8107 14.3937 15.7839 14.34 15.7571C14.2328 15.7303 14.0988 15.6767 13.9648 15.6499C13.8844 15.6231 13.804 15.5963 13.7236 15.5963H13.6967C13.6699 15.5963 13.67 15.5963 13.6431 15.5963C13.6163 15.5963 13.5895 15.5963 13.5895 15.5963C13.4823 15.5696 13.3751 15.5696 13.2679 15.5428C12.839 15.4892 12.5174 15.1141 12.5174 14.6854C12.5174 14.4443 12.6246 14.2031 12.8122 14.0424C12.973 13.9084 13.1875 13.828 13.4019 13.828C13.4555 13.828 13.4823 13.828 13.5359 13.828C14.9565 14.0424 16.2968 14.5782 17.4761 15.4356C18.9772 16.5341 20.1297 18.1149 20.6926 19.8564C20.9875 20.7406 21.1215 21.6515 21.1215 22.5893C21.1215 23.527 20.9875 24.438 20.6926 25.3221C20.2906 26.6618 19.5132 27.8942 18.4679 28.9124Z" fill="white"/>
<path d="M25.0618 14.3905C24.6062 11.9524 22.9175 9.9429 20.666 9.03195C19.835 8.68364 18.9237 8.49609 17.9588 8.49609H7.23711C6.27216 8.49609 5.36083 8.68364 4.5299 9.03195C1.87629 10.1037 0 12.7026 0 15.7301V29.1265C0 32.1541 1.87629 34.753 4.5299 35.8247C5.36083 36.173 6.27216 36.3606 7.23711 36.3606H17.9588C18.9237 36.3606 19.835 36.173 20.666 35.8247C23.3196 34.753 25.1959 32.1541 25.1959 29.1265V15.7301C25.1959 15.2747 25.1423 14.8192 25.0618 14.3905ZM21.8186 33.7349C20.7732 34.619 19.433 35.1281 17.9588 35.1281H7.23711C5.76288 35.1281 4.42267 34.5922 3.37731 33.7349C2.06391 32.6364 1.20618 30.9752 1.20618 29.1265V15.7301C1.20618 13.8814 2.06391 12.2203 3.37731 11.1218C4.42267 10.2376 5.76288 9.72855 7.23711 9.72855H17.9588C19.433 9.72855 20.7732 10.2644 21.8186 11.1218C23.132 12.2203 23.9897 13.8814 23.9897 15.7301V29.1265C23.9897 30.9752 23.1588 32.6364 21.8186 33.7349Z" fill="black"/>
<path d="M25.1958 19.7492H24.9545C24.4988 19.7492 24.1504 19.4009 24.1504 18.9454V15.1944C24.1504 14.7389 24.4988 14.3906 24.9545 14.3906H25.1958C25.6514 14.3906 25.9999 14.7389 25.9999 15.1944V18.9454C25.9999 19.4009 25.6514 19.7492 25.1958 19.7492Z" fill="black"/>
<path d="M24.8207 29.1801C24.365 29.1801 24.0166 28.8318 24.0166 28.3763V23.2857C24.0166 22.8302 24.365 22.4819 24.8207 22.4819C25.2764 22.4819 25.6248 22.8302 25.6248 23.2857V28.3763C25.6248 28.8318 25.2496 29.1801 24.8207 29.1801Z" fill="black"/>
<path d="M20.5051 11.7917C19.7814 11.3094 18.8969 11.0415 17.9588 11.0415H7.23711C6.29896 11.0415 5.41443 11.3094 4.69072 11.7917C3.40412 12.6223 2.54639 14.0959 2.54639 15.7302V29.1266C2.54639 30.7878 3.40412 32.2346 4.69072 33.0652C5.41443 33.5474 6.29896 33.8153 7.23711 33.8153H17.9588C18.8969 33.8153 19.7814 33.5474 20.5051 33.0652C21.7917 32.2346 22.6495 30.7878 22.6495 29.1266V15.7302C22.6495 14.0691 21.7917 12.6223 20.5051 11.7917ZM10.4804 26.1258C10.4 25.8579 10.4268 25.5632 10.6144 25.322C10.7752 25.1077 11.0433 24.9737 11.3113 24.9737C11.3917 24.9737 11.499 24.9737 11.5794 25.0273C11.7938 25.0809 12.035 25.1077 12.2763 25.1077C12.8124 25.1077 13.3485 24.9469 13.7773 24.6254C14.2062 24.3039 14.5546 23.8484 14.7155 23.3394C14.7959 23.0715 14.8495 22.8303 14.8495 22.5356C14.8495 22.2677 14.7959 21.9997 14.7155 21.7586C14.5546 21.2495 14.233 20.7941 13.7773 20.4726C13.5897 20.3386 13.3752 20.2046 13.1608 20.151C12.7856 20.0171 12.5711 19.6956 12.5711 19.3205C12.5711 19.0258 12.7051 18.7846 12.9464 18.6239C13.1608 18.4631 13.4289 18.4095 13.6701 18.4899C13.6969 18.4899 13.7237 18.5167 13.7505 18.5167C13.8577 18.5435 13.9381 18.5971 14.0185 18.6239C14.099 18.6774 14.2062 18.7042 14.2866 18.7578C14.367 18.8114 14.4474 18.8382 14.5278 18.8918C14.5546 18.8918 14.5546 18.9186 14.5814 18.9186C14.6619 18.9722 14.7423 19.0257 14.8227 19.0793C15.5464 19.6152 16.1093 20.3654 16.3773 21.2228C16.5113 21.6514 16.5918 22.0801 16.5918 22.5356C16.5918 22.9911 16.5113 23.4466 16.3773 23.8752C16.1093 24.7326 15.5464 25.4828 14.8227 26.0187C14.099 26.5545 13.2144 26.8492 12.3031 26.8492C12.1959 26.8492 12.0618 26.8492 11.9546 26.8224C11.901 26.8224 11.8474 26.8224 11.7938 26.7956C11.7402 26.7956 11.6598 26.7689 11.6062 26.7689C11.5526 26.7689 11.499 26.7421 11.4722 26.7421C11.4185 26.7421 11.3649 26.7153 11.3113 26.7153C11.2577 26.7153 11.2041 26.6885 11.1505 26.6617H11.1237C11.0969 26.6617 11.0969 26.6617 11.0701 26.6349C11.0701 26.6349 11.0701 26.6349 11.0433 26.6349C10.7484 26.5813 10.5608 26.3937 10.4804 26.1258ZM10.8557 27.1707H10.8825C10.9093 27.1707 10.9361 27.1707 10.9629 27.1975C11.0165 27.2243 11.0969 27.2243 11.1505 27.2511C11.2041 27.2779 11.2845 27.2779 11.3381 27.3047C11.3917 27.3047 11.4454 27.3315 11.499 27.3315C11.767 27.3851 12.0351 27.3851 12.3031 27.3851C13.3485 27.3851 14.3134 27.0636 15.1443 26.4473C15.9484 25.8579 16.5917 25.0005 16.8866 24.036C17.0474 23.5537 17.1278 23.0447 17.1278 22.5356C17.1278 22.0265 17.0474 21.5175 16.8866 21.0352C16.5649 20.0707 15.9484 19.2133 15.1443 18.6239C15.0639 18.5703 15.0103 18.5167 14.9299 18.4899C14.6619 18.3023 14.367 18.1684 14.0454 18.0344C14.0186 18.0076 13.9649 18.0076 13.9381 17.9808H13.9113C13.6969 17.9005 13.4825 17.8469 13.2412 17.7933C12.8392 17.7129 12.5711 17.3646 12.5711 16.9359C12.5711 16.668 12.6783 16.4268 12.8928 16.2661C13.0804 16.1321 13.2948 16.0517 13.5093 16.0785C13.5629 16.0785 13.5897 16.1053 13.6433 16.1053C13.7237 16.1053 13.8041 16.1321 13.8845 16.1589C13.9381 16.1589 13.9918 16.1857 14.0454 16.1857C14.099 16.2125 14.1794 16.2125 14.233 16.2393C14.2866 16.2661 14.367 16.2929 14.4206 16.2929C14.5278 16.3197 14.6618 16.3733 14.7691 16.4268C15.0371 16.534 15.2783 16.6412 15.5196 16.7752C15.5732 16.802 15.6268 16.8287 15.6804 16.8555C15.7608 16.9091 15.868 16.9627 15.9484 17.0163C16.0289 17.0699 16.1093 17.1235 16.1897 17.1771C17.3155 17.9808 18.1464 19.1597 18.5752 20.4726C18.7897 21.1156 18.8969 21.8122 18.8969 22.5088C18.8969 23.2054 18.7897 23.902 18.5752 24.5451C18.5484 24.5986 18.5216 24.679 18.5216 24.7326C18.4948 24.7862 18.468 24.8666 18.4412 24.9201C18.4144 24.9737 18.3876 25.0541 18.3608 25.1077C18.2804 25.322 18.1732 25.5364 18.066 25.7239C18.0392 25.7775 17.9856 25.8579 17.9588 25.9115C17.9051 25.9919 17.8515 26.099 17.7711 26.1794C17.7175 26.233 17.6907 26.3134 17.6371 26.367C17.5835 26.4473 17.5031 26.5545 17.4227 26.6349C17.3691 26.7153 17.2886 26.7956 17.235 26.8492C17.2082 26.876 17.1814 26.9296 17.1546 26.9564C17.0742 27.0368 16.9938 27.1172 16.9134 27.1975C16.699 27.4119 16.4309 27.6262 16.1897 27.8138C15.0639 28.6443 13.7237 29.073 12.3299 29.073C10.9361 29.073 9.59586 28.6443 8.47009 27.8138C7.71957 27.2511 7.04947 26.5277 6.5938 25.7239C6.45978 25.5096 6.45979 25.2417 6.54021 25.0005C6.64742 24.7594 6.83505 24.5718 7.10309 24.4915C7.1835 24.4647 7.29072 24.4379 7.37113 24.4379C7.66597 24.4379 7.96081 24.5986 8.12164 24.8666C8.47009 25.4828 8.92577 26.0187 9.48866 26.4206C9.89072 26.7957 10.3732 27.0368 10.8557 27.1707ZM18.468 28.9123C18.2804 29.0998 18.0392 29.1802 17.7711 29.1534C17.5031 29.1266 17.2887 28.9926 17.1278 28.8051C16.8598 28.4568 16.9134 27.9745 17.235 27.653C17.2618 27.6262 17.2618 27.6262 17.2887 27.5994C17.3423 27.5458 17.4227 27.4655 17.4763 27.3851C17.5835 27.2779 17.6639 27.1707 17.7443 27.0636C17.8247 26.9564 17.932 26.8492 18.0124 26.7421C18.066 26.6617 18.1196 26.5813 18.1732 26.5009C18.2268 26.4473 18.2536 26.367 18.3072 26.2866C18.334 26.233 18.3876 26.1794 18.4144 26.099C18.4412 26.0455 18.468 26.0187 18.4948 25.9651C18.5216 25.9115 18.5753 25.8311 18.6021 25.7775C18.6289 25.7507 18.6289 25.6971 18.6557 25.6703C18.7093 25.59 18.7361 25.4828 18.7897 25.4024C18.8969 25.1881 18.9773 24.9737 19.0309 24.7594C19.2722 24.0628 19.3794 23.3126 19.3794 22.5624C19.3794 21.8122 19.2722 21.062 19.0309 20.3654C18.5752 18.9454 17.6639 17.6861 16.4577 16.8019C16.3773 16.7484 16.2969 16.668 16.1897 16.6144C16.1629 16.5876 16.1361 16.5608 16.0825 16.5608C15.8948 16.4536 15.7072 16.3465 15.5196 16.2393C15.466 16.2125 15.4124 16.1857 15.3588 16.1589C15.1979 16.0785 15.0639 15.9982 14.8763 15.9446C14.8227 15.9178 14.7691 15.891 14.7155 15.891C14.635 15.8642 14.5546 15.8374 14.4742 15.8106C14.4206 15.8106 14.3938 15.7838 14.3402 15.757C14.233 15.7302 14.099 15.6767 13.9649 15.6499C13.8845 15.6231 13.8041 15.5963 13.7237 15.5963H13.6969C13.6701 15.5963 13.6701 15.5963 13.6433 15.5963C13.6165 15.5963 13.5897 15.5963 13.5897 15.5963C13.4825 15.5695 13.3752 15.5695 13.268 15.5427C12.8392 15.4891 12.5175 15.114 12.5175 14.6853C12.5175 14.4442 12.6247 14.2031 12.8124 14.0423C12.9732 13.9083 13.1876 13.828 13.4021 13.828C13.4557 13.828 13.4825 13.828 13.5361 13.828C14.9567 14.0423 16.2969 14.5782 17.4763 15.4355C18.9773 16.534 20.1299 18.1148 20.6928 19.8563C20.9876 20.7405 21.1216 21.6514 21.1216 22.5892C21.1216 23.5269 20.9876 24.4379 20.6928 25.322C20.2907 26.6617 19.5134 27.8941 18.468 28.9123Z" fill="black"/>
</g>
</svg>
